<svg width="22" height="22" viewBox="0 0 22 22" fill="none" xmlns="http://www.w3.org/2000/svg">
<path d="M5.98128 0.994141C6.55682 0.994141 8.85898 6.174 8.85898 6.74954C8.85898 7.90062 7.13236 9.05169 6.55682 10.2028C5.98128 11.3539 7.13236 12.5049 8.28344 13.656C8.73731 14.1099 10.5856 15.9582 11.7367 15.3826C12.8878 14.8071 14.0388 13.0805 15.1899 13.0805C15.7655 13.0805 20.9453 15.3826 20.9453 15.9582C20.9453 18.2603 19.2187 19.9869 17.4921 20.5625C15.7655 21.138 14.6144 21.138 12.3122 20.5625C10.0101 19.9869 8.28344 19.4114 5.40574 16.5337C2.52805 13.656 1.95251 11.9294 1.37697 9.62723C0.801428 7.32508 0.801428 6.174 1.37697 4.44738C1.95251 2.72076 3.67913 0.994141 5.98128 0.994141Z" stroke="white" stroke-width="1.65755" stroke-linecap="round" stroke-linejoin="round"/>
<g clip-path="url(#clip0_942_3101)">
<path d="M18.3848 0.304688H15.9004V3.09961H13.1055V5.58398H15.9004V8.37891H18.3848V5.58398H21.1797V3.09961H18.3848V0.304688Z" stroke="white" stroke-width="1.2" stroke-linecap="round" stroke-linejoin="round"/>
</g>
<defs>
<clipPath id="clip0_942_3101">
<rect width="8.69531" height="8.69531" fill="white" transform="translate(12.793 -0.00585938)"/>
</clipPath>
</defs>
</svg>
