<svg width="25" height="25" viewBox="0 0 25 25" fill="none" xmlns="http://www.w3.org/2000/svg">
<g clip-path="url(#clip0_942_3116)">
<path d="M4.75781 18.3882C4.75781 17.3456 5.17199 16.3457 5.90922 15.6084C6.64646 14.8712 7.64636 14.457 8.68897 14.457H16.5513C17.5939 14.457 18.5938 14.8712 19.331 15.6084C20.0683 16.3457 20.4825 17.3456 20.4825 18.3882C20.4825 18.9095 20.2754 19.4094 19.9068 19.7781C19.5381 20.1467 19.0382 20.3538 18.5169 20.3538H6.72339C6.20209 20.3538 5.70214 20.1467 5.33352 19.7781C4.9649 19.4094 4.75781 18.9095 4.75781 18.3882Z" stroke="#074793" stroke-width="1.96558" stroke-linejoin="round"/>
<path d="M12.6202 10.5256C14.2486 10.5256 15.5686 9.20562 15.5686 7.57728C15.5686 5.94894 14.2486 4.62891 12.6202 4.62891C10.9919 4.62891 9.67188 5.94894 9.67188 7.57728C9.67188 9.20562 10.9919 10.5256 12.6202 10.5256Z" stroke="#074793" stroke-width="1.96558"/>
</g>
<defs>
<clipPath id="clip0_942_3116">
<rect width="23.587" height="23.587" fill="white" transform="translate(0.824219 0.699219)"/>
</clipPath>
</defs>
</svg>
