<svg width="24" height="25" viewBox="0 0 24 25" fill="none" xmlns="http://www.w3.org/2000/svg">
<path d="M16.665 2.625C14.8022 2.625 13.149 3.36027 12.029 4.62405C10.9089 3.36027 9.25572 2.625 7.39297 2.625C5.77057 2.62696 4.21519 3.27233 3.06798 4.41954C1.92077 5.56675 1.2754 7.12213 1.27344 8.74453C1.27344 15.4519 11.0842 20.8111 11.5014 21.0364C11.6635 21.1238 11.8448 21.1695 12.029 21.1695C12.2131 21.1695 12.3944 21.1238 12.5566 21.0364C12.9738 20.8111 22.7845 15.4519 22.7845 8.74453C22.7826 7.12213 22.1372 5.56675 20.99 4.41954C19.8428 3.27233 18.2874 2.62696 16.665 2.625ZM16.156 15.8246C14.8646 16.9204 13.4842 17.9067 12.029 18.7731C10.5738 17.9067 9.19335 16.9204 7.902 15.8246C5.89276 14.101 3.49872 11.4724 3.49872 8.74453C3.49872 7.71171 3.90901 6.7212 4.63932 5.99088C5.36963 5.26057 6.36015 4.85028 7.39297 4.85028C9.04339 4.85028 10.4249 5.72185 10.9989 7.12564C11.0824 7.33028 11.225 7.5054 11.4085 7.62867C11.5919 7.75194 11.8079 7.81778 12.029 7.81778C12.25 7.81778 12.466 7.75194 12.6495 7.62867C12.833 7.5054 12.9756 7.33028 13.0591 7.12564C13.633 5.72185 15.0146 4.85028 16.665 4.85028C17.6978 4.85028 18.6883 5.26057 19.4186 5.99088C20.149 6.7212 20.5592 7.71171 20.5592 8.74453C20.5592 11.4724 18.1652 14.101 16.156 15.8246Z" fill="#074793"/>
</svg>
