<svg width="21" height="19" viewBox="0 0 21 19" fill="none" xmlns="http://www.w3.org/2000/svg">
<path d="M6.63873 18.338C7.55888 18.338 8.30481 17.5921 8.30481 16.6719C8.30481 15.7518 7.55888 15.0059 6.63873 15.0059C5.71858 15.0059 4.97266 15.7518 4.97266 16.6719C4.97266 17.5921 5.71858 18.338 6.63873 18.338Z" fill="#074793"/>
<path d="M16.6348 18.338C17.555 18.338 18.3009 17.5921 18.3009 16.6719C18.3009 15.7518 17.555 15.0059 16.6348 15.0059C15.7147 15.0059 14.9688 15.7518 14.9688 16.6719C14.9688 17.5921 15.7147 18.338 16.6348 18.338Z" fill="#074793"/>
<path d="M1.64062 1.67773H3.86206L4.52849 5.00989M4.52849 5.00989L6.0835 12.7849H17.1907L19.4121 5.00989H4.52849Z" stroke="#074793" stroke-width="2.35006" stroke-linecap="round" stroke-linejoin="round"/>
</svg>
