<svg width="29" height="28" viewBox="0 0 29 28" fill="none" xmlns="http://www.w3.org/2000/svg">
<rect x="0.707031" width="27.6383" height="27.6383" rx="13.8192" fill="#FF0000"/>
<path d="M11.0968 6.91211C11.4945 6.91211 13.0852 10.4912 13.0852 10.8888C13.0852 11.6842 11.8922 12.4795 11.4945 13.2749C11.0968 14.0702 11.8922 14.8656 12.6875 15.6609C13.0011 15.9745 14.2782 17.2516 15.0736 16.854C15.8689 16.4563 16.6643 15.2633 17.4596 15.2633C17.8573 15.2633 21.4364 16.854 21.4364 17.2516C21.4364 18.8423 20.2433 20.0354 19.0503 20.433C17.8573 20.8307 17.0619 20.8307 15.4713 20.433C13.8806 20.0354 12.6875 19.6377 10.6992 17.6493C8.71079 15.6609 8.31312 14.4679 7.91544 12.8772C7.51777 11.2865 7.51777 10.4912 7.91544 9.29815C8.31312 8.10513 9.50614 6.91211 11.0968 6.91211Z" stroke="white" stroke-width="1.1453" stroke-linecap="round" stroke-linejoin="round"/>
<path d="M15.8711 10.1289C16.3967 10.3701 16.8709 10.7041 17.2728 11.1097C17.6643 11.5048 17.9872 11.968 18.2221 12.4799" stroke="white" stroke-width="1.1453" stroke-linecap="round" stroke-linejoin="round"/>
<path d="M21.2357 11.6849C20.9489 10.5708 20.3681 9.57486 19.5808 8.78468C18.788 7.98902 17.7859 7.40202 16.6641 7.11328" stroke="white" stroke-width="1.1453" stroke-linecap="round" stroke-linejoin="round"/>
</svg>
