<svg width="28" height="27" viewBox="0 0 28 27" fill="none" xmlns="http://www.w3.org/2000/svg">
<rect x="0.707031" y="0.638672" width="26.332" height="26.332" rx="13.166" fill="#FF0000"/>
<path d="M10.8533 17.424C9.7496 17.6726 9.04297 18.054 9.04297 18.4824C9.04297 19.2307 11.2045 19.8377 13.8705 19.8377C16.5365 19.8377 18.698 19.2307 18.698 18.4824C18.698 18.054 17.9914 17.6726 16.8877 17.424M15.3791 11.993C15.3791 12.3931 15.2202 12.7768 14.9373 13.0597C14.6543 13.3426 14.2706 13.5016 13.8705 13.5016C13.4704 13.5016 13.0867 13.3426 12.8038 13.0597C12.5208 12.7768 12.3619 12.3931 12.3619 11.993C12.3619 11.5929 12.5208 11.2092 12.8038 10.9262C13.0867 10.6433 13.4704 10.4844 13.8705 10.4844C14.2706 10.4844 14.6543 10.6433 14.9373 10.9262C15.2202 11.2092 15.3791 11.5929 15.3791 11.993Z" stroke="white" stroke-width="1.0862" stroke-linecap="round" stroke-linejoin="round"/>
<path d="M14.6274 17.1193C14.4236 17.3154 14.1518 17.4249 13.8689 17.4249C13.5861 17.4249 13.3142 17.3154 13.1104 17.1193C11.2464 15.3132 8.74871 13.2959 9.96646 10.3667C10.626 8.78271 12.207 7.76953 13.8689 7.76953C15.5308 7.76953 17.1124 8.78331 17.7714 10.3667C18.9879 13.2916 16.4963 15.3192 14.6274 17.1193Z" stroke="white" stroke-width="1.0862" stroke-linecap="round" stroke-linejoin="round"/>
</svg>
