<svg width="100" height="100" viewBox="0 0 100 100" fill="none" xmlns="http://www.w3.org/2000/svg">
<g opacity="0.1" clip-path="url(#clip0_1188_133)">
<path fill-rule="evenodd" clip-rule="evenodd" d="M22.8322 67.5057C22.6203 67.3551 22.4063 67.2077 22.1982 67.0533C21.0312 66.1803 20.1423 65.0814 19.5799 63.7366C18.6116 61.4136 18.5239 59.0586 19.3694 56.6813C19.6899 55.7945 20.1287 54.955 20.6741 54.1858C21.3085 53.2814 22.0598 52.4649 22.9084 51.7575C24.2655 50.6186 25.7848 49.761 27.4346 49.1232C28.6745 48.6461 29.9606 48.2991 31.2721 48.0877C32.4999 47.8788 33.7091 47.5729 34.8885 47.1727C36.3781 46.6762 37.8219 46.0675 39.2628 45.4464C40.5351 44.8968 41.8004 44.3339 43.0941 43.8426C44.0653 43.4617 45.0626 43.151 46.0783 42.9129C47.3517 42.6274 48.6352 42.5122 49.9366 42.7224C50.905 42.8772 51.8361 43.2108 52.6825 43.706C53.6488 44.2622 54.5373 44.9437 55.3251 45.7327C56.5121 46.9279 57.3609 48.4166 57.785 50.0469C58.0882 51.1805 58.2234 52.3378 58.2934 53.5034C58.3687 54.7415 58.3742 55.9806 58.4039 57.2194C58.4387 58.6149 58.5047 60.0084 58.6803 61.3951C58.8548 62.7752 59.1513 64.1371 59.5664 65.4649C60.0736 67.066 60.3798 68.7241 60.4782 70.4008C60.5646 71.8361 60.4527 73.2765 60.1457 74.6812C59.9065 75.7759 59.5161 76.832 58.9857 77.819C58.1701 79.3252 57.0647 80.5668 55.5994 81.474C54.2424 82.3149 52.7568 82.7507 51.1701 82.8446C50.0017 82.9143 48.8523 82.8076 47.7321 82.4538C47.3344 82.3303 46.9466 82.1771 46.5718 81.9957C46.5198 81.9699 46.4674 81.9499 46.4138 81.9292C46.3524 81.9262 46.314 81.8757 46.2614 81.851C46.2168 81.8328 46.1859 81.7898 46.1328 81.7905L45.2257 81.2358C45.205 81.1885 45.1537 81.1813 45.1181 81.1535L44.9264 81.0362C44.1683 80.5381 43.5163 79.9182 42.8735 79.2858C41.7868 78.215 40.7812 77.0658 39.7154 75.9731C38.859 75.0841 37.9436 74.2538 36.9754 73.488C36.2976 72.9681 35.582 72.4994 34.8346 72.0857C34.242 71.7504 33.6086 71.4866 32.9717 71.2431C31.7134 70.7657 30.4231 70.3922 29.1317 70.018C27.7648 69.6247 26.3998 69.2281 25.0814 68.6913C24.5456 68.4721 24.0166 68.242 23.523 67.9341C23.4224 67.8696 23.3123 67.8234 23.2106 67.7582C23.0839 67.6701 22.9416 67.6148 22.8304 67.5062M75.8768 30.9915C77.387 32.1844 78.1267 33.776 78.2795 35.6651C78.3834 36.9598 78.1793 38.2167 77.7763 39.4468C77.4255 40.4998 76.9369 41.5017 76.3232 42.4265C75.2129 44.1216 73.7571 45.5631 72.051 46.6566C70.8729 47.4297 69.5689 47.9913 68.1976 48.3161C66.9666 48.5989 65.7272 48.6689 64.4808 48.423C63.6057 48.2492 62.7913 47.9319 62.0592 47.421C60.7886 46.5402 59.9902 45.3326 59.61 43.8449C59.285 42.5745 59.3169 41.2966 59.5773 40.0214C59.7624 39.1342 60.0521 38.2721 60.4403 37.4531C60.7016 36.8905 61.0034 36.3476 61.3432 35.8287C62.1438 34.6054 63.1106 33.5289 64.2367 32.598C65.4185 31.6032 66.7657 30.8238 68.2171 30.2951C69.4501 29.854 70.7186 29.6181 72.0325 29.675C72.9918 29.7097 73.9345 29.9352 74.8058 30.3382C74.8397 30.3393 74.863 30.3627 74.8896 30.3759L74.9674 30.4234C75.0084 30.4425 75.0371 30.4841 75.0871 30.4786L75.6218 30.8055C75.639 30.8537 75.6898 30.8591 75.7244 30.8863L75.8032 30.9345C75.8284 30.9499 75.8592 30.9612 75.8768 30.9915ZM26.5846 27.3105C26.9139 26.8285 27.3025 26.3948 27.7269 25.9936C28.5525 25.2145 29.4871 24.6165 30.5789 24.2832C31.765 23.9045 33.0439 23.935 34.2107 24.3696C35.1828 24.7292 35.9953 25.3253 36.6773 26.1005C37.4635 26.9907 38.0083 28.0222 38.3651 29.1494C38.9198 30.8958 38.9967 32.6753 38.7013 34.4754C38.4791 35.8769 37.9954 37.2242 37.2753 38.447C36.8369 39.2045 36.2977 39.8992 35.6726 40.5118C34.831 41.3293 33.8733 41.9553 32.745 42.304C31.4886 42.7091 30.129 42.6531 28.9102 42.1461C27.9879 41.7689 27.2193 41.1724 26.5724 40.4187C25.7028 39.4038 25.1414 38.2297 24.8009 36.9453C24.4753 35.7032 24.3673 34.414 24.4817 33.1349C24.581 31.8778 24.8799 30.6446 25.367 29.4814C25.4555 29.2752 25.5484 29.0716 25.6373 28.8671C25.6705 28.7685 25.7336 28.6851 25.7639 28.5862C25.7761 28.5441 25.8024 28.5134 25.8241 28.4755C25.845 28.4266 25.8959 28.39 25.8949 28.3277L26.3196 27.6331C26.4023 27.5964 26.4232 27.5129 26.4691 27.4476C26.5043 27.3999 26.5247 27.3371 26.5846 27.3105ZM44.84 23.1852C45.6882 21.8104 46.6433 20.689 47.836 19.7747C48.7359 19.0833 49.7186 18.5493 50.8184 18.2449C52.004 17.9132 53.1904 17.8831 54.3746 18.2504C55.5594 18.6167 56.5218 19.3075 57.2931 20.2713C57.972 21.1228 58.4286 22.0869 58.7204 23.1308C59.186 24.7941 59.2168 26.4791 58.9365 28.1756C58.7592 29.2533 58.4537 30.2946 58.0272 31.2997C57.7862 31.8687 57.5089 32.4231 57.1963 32.959C56.803 33.6341 56.3487 34.2717 55.8389 34.8638C54.7686 36.0998 53.5182 37.0962 51.9929 37.7199C51.0579 38.1144 50.0468 38.2957 49.033 38.2505C47.9067 38.1978 46.8208 37.8144 45.911 37.1484C45.0689 36.5416 44.4306 35.754 43.9467 34.8395C43.3148 33.6479 42.9965 32.3665 42.8976 31.0267C42.7915 29.4496 42.9769 27.8665 43.4443 26.3565C43.6952 25.5239 44.0219 24.716 44.4203 23.943C44.5462 23.6829 44.6863 23.4299 44.84 23.1852ZM80.8156 61.5807L80.7178 61.7406C79.845 63.0327 78.7246 64.065 77.4228 64.9066C76.407 65.5653 75.2954 66.063 74.1275 66.3821C72.6199 66.7923 71.0955 66.9002 69.555 66.5814C68.6372 66.4023 67.7654 66.0382 66.9928 65.5114C65.8665 64.7545 65.0503 63.6175 64.6933 62.3083C64.3824 61.1971 64.4118 60.0832 64.6783 58.9728C64.9194 57.9841 65.3307 57.0448 65.8939 56.1971C67.1266 54.3139 68.7989 52.9402 70.8266 51.9871C71.5101 51.6643 72.225 51.4124 72.9599 51.2355C74.4708 50.874 75.9839 50.8118 77.5056 51.1808C78.3641 51.3822 79.175 51.7492 79.8929 52.2612C80.9761 53.0253 81.7555 54.1466 82.094 55.4283C82.4164 56.6143 82.3552 57.7975 82.0346 58.9741C81.8587 59.6237 81.6079 60.2455 81.2749 60.832L81.1764 60.9931C81.0507 61.1856 80.9297 61.3811 80.8156 61.5807Z" fill="#B17E55"/>
</g>
<defs>
<clipPath id="clip0_1188_133">
<rect width="71.9097" height="71.9097" fill="white" transform="translate(38.3867 0.513672) rotate(31.4436)"/>
</clipPath>
</defs>
</svg>
