<svg width="489" height="155" viewBox="0 0 489 155" fill="none" xmlns="http://www.w3.org/2000/svg">
<path d="M185.669 41.4053C186.479 42.0972 187.111 42.941 187.567 43.9367C188.027 44.9281 188.259 46.1137 188.259 47.4975C188.259 49.0796 188.027 50.4318 187.567 51.5561C187.111 52.6826 186.514 53.6318 185.778 54.4081C185.04 55.1844 184.205 55.8046 183.272 56.2645C182.338 56.7264 181.395 57.0724 180.445 57.3023C179.494 57.5344 178.572 57.6715 177.678 57.7158C176.783 57.7558 176.02 57.7474 175.391 57.6905L174.48 67.9256L169.426 68.7525L168.607 39.9793C168.202 39.3169 167.911 38.6968 167.738 38.123C167.569 37.545 167.47 37.0387 167.443 36.6042C167.379 36.1148 167.409 35.6718 167.527 35.271C168.246 35.2435 168.915 35.3216 169.535 35.5072C170.153 35.6929 170.721 35.946 171.24 36.2666C171.757 36.5831 172.219 36.9206 172.624 37.2792C173.029 37.6399 173.375 37.9774 173.661 38.2917C174.779 38.2643 175.982 38.3086 177.264 38.4267C178.547 38.5407 179.806 38.7537 181.045 39.068C181.218 38.8107 181.504 38.4668 181.905 38.0386C182.31 37.6062 182.8 37.1737 183.373 36.7392C183.951 36.3067 184.616 35.946 185.365 35.6591C186.112 35.3722 186.934 35.2435 187.829 35.271C187.947 35.8173 187.947 36.4227 187.829 37.0851C187.744 37.6589 187.542 38.3149 187.221 39.0511C186.905 39.7831 186.388 40.5679 185.669 41.4053ZM175.737 53.8006C176.743 53.8575 177.606 53.7795 178.328 53.5643C179.047 53.3513 179.638 53.0496 180.1 52.6615C180.559 52.2691 180.897 51.8135 181.112 51.2945C181.325 50.7777 181.45 50.2461 181.483 49.6998C181.483 49.1555 181.401 48.6366 181.239 48.1472C181.08 47.6536 180.808 47.2254 180.42 46.8646C180.032 46.506 179.505 46.2402 178.842 46.0715C178.178 45.8985 177.37 45.8521 176.421 45.9365L175.737 53.8006Z" fill="#FF0000"/>
<path d="M211.777 34.6639C211.895 35.2102 211.895 35.8156 211.777 36.478C211.693 37.0581 211.49 37.7226 211.169 38.4694C210.853 39.2182 210.336 40.0093 209.617 40.8404L212.165 68.3226L207.372 69.2255L206.073 61.0154L198.901 61.5386L197.264 68.8795L192.809 67.3691L196.783 41.7939C195.775 40.8721 195.055 39.9797 194.623 39.1191C194.195 38.2542 193.908 37.4885 193.762 36.824C193.614 36.0772 193.602 35.3558 193.72 34.6639C194.585 34.6364 195.393 34.7736 196.142 35.0773C196.888 35.3769 197.551 35.7355 198.124 36.1574C198.702 36.5751 199.188 37.0075 199.576 37.4568C199.964 37.9019 200.259 38.2542 200.462 38.5116L205.17 38.2922C205.373 38.0053 205.681 37.6551 206.098 37.2374C206.514 36.8155 207.003 36.4105 207.566 36.0224C208.128 35.6342 208.76 35.3052 209.465 35.0351C210.174 34.7609 210.944 34.6364 211.777 34.6639ZM205.17 55.2692L203.137 42.7474L200.327 55.2692H205.17Z" fill="#FF0000"/>
<path d="M249.092 35.274C249.181 35.7086 249.195 36.1832 249.134 36.7C249.077 37.162 248.957 37.6957 248.771 38.3032C248.586 38.9065 248.261 39.552 247.801 40.2439L248.054 40.3283L241.793 68.0637L234.013 68.7556L232.722 59.4655L231.035 68.0637L223.255 68.7556L217.813 40.3283L218.42 40.1511C217.958 39.4592 217.648 38.8221 217.492 38.2357C217.334 37.6451 217.226 37.1346 217.171 36.7C217.108 36.1832 217.123 35.7086 217.214 35.274C218.277 35.2192 219.247 35.3626 220.125 35.7043C221.002 36.0482 221.757 36.4511 222.394 36.911C223.141 37.4299 223.806 38.0332 224.386 38.7251L226.976 60.5033L230.343 42.1003H236.089L237.735 60.5033L241.709 38.3792C242.337 37.778 243.027 37.2316 243.776 36.7422C244.439 36.3372 245.219 35.9786 246.113 35.6621C247.008 35.3478 247.999 35.2192 249.092 35.274Z" fill="#FF0000"/>
<path d="M268.111 47.5007C267.592 46.8658 266.974 46.4186 266.255 46.1591C265.533 45.9017 264.833 45.8216 264.154 45.9228C263.479 46.0241 262.909 46.2836 262.449 46.6991C261.994 47.1168 261.766 47.6843 261.766 48.4036C261.766 48.9837 262.002 49.5258 262.475 50.0321C262.947 50.5342 263.534 51.0278 264.238 51.5172C264.947 52.0066 265.71 52.5339 266.533 53.0951C267.354 53.6583 268.115 54.2996 268.82 55.0189C269.529 55.7403 270.119 56.5525 270.592 57.4574C271.069 58.3645 271.309 59.4214 271.309 60.6301C271.309 61.6996 271.157 62.7522 270.853 63.7859C270.554 64.8216 270.064 65.7435 269.385 66.5535C268.71 67.3593 267.833 68.0048 266.753 68.4942C265.673 68.9836 264.339 69.2283 262.753 69.2283C261.171 69.2283 259.833 68.9414 258.737 68.3676C257.644 67.7896 256.766 67.1526 256.104 66.4607C255.328 65.657 254.695 64.7372 254.205 63.7015L256.838 59.0353C257.18 59.896 257.61 60.6723 258.129 61.3642C258.561 61.9443 259.11 62.478 259.774 62.9674C260.437 63.4568 261.23 63.7015 262.154 63.7015C262.783 63.7015 263.348 63.4568 263.85 62.9674C264.356 62.478 264.609 61.8599 264.609 61.1111C264.609 60.4761 264.35 59.9087 263.833 59.4066C263.314 58.9003 262.673 58.4025 261.909 57.9131C261.15 57.4237 260.314 56.9069 259.403 56.3605C258.496 55.8099 257.661 55.175 256.897 54.4536C256.138 53.7342 255.499 52.8925 254.982 51.9306C254.463 50.9645 254.205 49.8022 254.205 48.4458C254.205 46.8932 254.399 45.541 254.788 44.3871C255.176 43.2354 255.728 42.2566 256.45 41.4508C255.701 40.6133 255.167 39.8201 254.847 39.0713C254.53 38.3245 254.332 37.6621 254.248 37.0884C254.129 36.426 254.142 35.8206 254.29 35.2742C255.121 35.2468 255.889 35.3565 256.593 35.6033C257.302 35.8459 257.937 36.1602 258.5 36.5483C259.061 36.9365 259.542 37.3478 259.943 37.7803C260.348 38.2148 260.665 38.5734 260.897 38.8603C262.162 38.5397 263.458 38.3794 264.787 38.3794C265.331 38.3794 265.894 38.4532 266.474 38.5988C266.731 38.2844 267.069 37.9237 267.487 37.5187C267.902 37.1137 268.377 36.7403 268.913 36.3965C269.446 36.0484 270.043 35.7678 270.701 35.5527C271.364 35.3396 272.085 35.2468 272.862 35.2742C272.832 36.1644 272.748 37.042 272.608 37.9068C272.461 38.6557 272.25 39.4257 271.976 40.2188C271.706 41.012 271.326 41.6955 270.837 42.2692L268.111 47.5007Z" fill="#FF0000"/>
<path d="M314.262 35.2731C314.347 35.6444 314.374 36.0473 314.347 36.4797C314.317 36.8573 314.239 37.3045 314.11 37.8213C313.979 38.3403 313.756 38.9014 313.435 39.5089C313.524 41.3779 313.589 43.4072 313.629 45.6011C313.674 47.7907 313.608 49.9635 313.435 52.1236C313.266 54.2837 312.965 56.3657 312.532 58.3676C312.098 60.3653 311.471 62.1351 310.651 63.6751C309.828 65.2171 308.763 66.449 307.453 67.3708C306.141 68.2948 304.535 68.7547 302.635 68.7547C300.705 68.7547 299.12 68.3391 297.884 67.5059C296.646 66.6684 295.652 65.544 294.906 64.1307C294.157 62.7195 293.617 61.0762 293.286 59.203C292.952 57.3298 292.737 55.3595 292.636 53.288C292.535 51.2123 292.503 49.1028 292.543 46.9596C292.587 44.8121 292.611 42.7575 292.611 40.7999L293.741 40.4962C293.218 39.7494 292.855 39.0659 292.653 38.4457C292.454 37.8277 292.328 37.2729 292.273 36.7835C292.21 36.2392 292.224 35.7351 292.315 35.2731C293.378 35.2183 294.404 35.3617 295.395 35.7034C296.391 36.0473 297.262 36.4502 298.011 36.91C298.905 37.429 299.726 38.0323 300.475 38.7242C300.013 43.2469 299.768 47.2802 299.741 50.8241C299.711 52.3493 299.734 53.8322 299.808 55.2709C299.88 56.7117 300.023 58.0027 300.238 59.1439C300.458 60.2809 300.753 61.1943 301.124 61.8862C301.5 62.5781 301.977 62.9241 302.55 62.9241C303.327 62.9241 303.951 62.5866 304.424 61.9115C304.9 61.2323 305.284 60.3083 305.571 59.1439C305.862 57.9753 306.061 56.6125 306.162 55.06C306.263 53.5032 306.326 51.8451 306.356 50.09C306.383 48.335 306.383 46.544 306.356 44.7151C306.326 42.882 306.314 41.0868 306.314 39.3317C307.033 38.528 307.824 37.8213 308.685 37.2138C309.431 36.697 310.273 36.2308 311.208 35.8131C312.146 35.3976 313.165 35.2183 314.262 35.2731Z" fill="#FF0000"/>
<path d="M344.875 35.2736C344.964 35.763 344.981 36.282 344.926 36.8262C344.862 37.3156 344.725 37.8873 344.512 38.5391C344.297 39.1867 343.915 39.885 343.365 40.6317L341.162 68.7552H336.285L327.341 53.3307L326.607 68.0633L321.637 68.7552L320.38 39.8048C319.979 39.1466 319.707 38.5454 319.561 37.9991C319.42 37.4485 319.334 36.9697 319.3 36.5646C319.27 36.0752 319.302 35.6449 319.393 35.2736C320.196 35.2462 320.958 35.3559 321.679 35.6027C322.399 35.8453 323.04 36.1596 323.603 36.5478C324.164 36.9359 324.645 37.3473 325.046 37.7797C325.451 38.2143 325.767 38.5729 325.999 38.8598L328.033 38.5982L335.982 53.9383L335.636 38.3788L338.353 38.7669C338.582 38.48 338.905 38.1235 339.323 37.6953C339.745 37.2629 340.228 36.8663 340.774 36.5056C341.318 36.147 341.939 35.8453 342.631 35.6027C343.322 35.3559 344.069 35.2462 344.875 35.2736Z" fill="#FF0000"/>
<path d="M363.765 35.2732C363.876 35.9377 363.862 36.6444 363.722 37.3912C363.575 38.0493 363.286 38.8129 362.853 39.6778C362.419 40.5448 361.699 41.4371 360.693 42.3526L358.449 67.9279L353.394 68.7548L352.618 41.7957C351.779 40.9013 351.179 40.066 350.821 39.2897C350.46 38.5134 350.224 37.8215 350.112 37.214C349.994 36.5221 349.994 35.8766 350.112 35.2732C350.973 35.2458 351.776 35.3703 352.525 35.6445C353.278 35.9145 353.943 36.2584 354.517 36.6739C355.09 37.0916 355.571 37.5241 355.959 37.9734C356.352 38.4185 356.647 38.7708 356.845 39.0281H357.023C357.225 38.7708 357.521 38.4185 357.909 37.9734C358.297 37.5241 358.778 37.1001 359.352 36.6993C359.93 36.2942 360.594 35.9483 361.343 35.6614C362.09 35.3745 362.898 35.2458 363.765 35.2732Z" fill="#FF0000"/>
<path d="M391.369 35.274C391.454 35.6748 391.466 36.1347 391.411 36.6578C391.354 37.086 391.245 37.5944 391.082 38.1851C390.924 38.7757 390.631 39.4044 390.205 40.0667L391.065 40.3283L384.155 68.0637L375.43 68.7556L369.38 40.3283L370.156 40.1511C369.694 39.4592 369.384 38.8221 369.228 38.2357C369.07 37.6451 368.962 37.1346 368.908 36.7C368.844 36.1832 368.874 35.7086 368.992 35.274C370.055 35.2192 371.047 35.3626 371.97 35.7043C372.892 36.0482 373.713 36.4511 374.434 36.911C375.238 37.4299 376 38.0332 376.721 38.7251L379.615 60.5033L384.028 38.3792C384.657 37.778 385.347 37.2316 386.096 36.7422C386.758 36.3372 387.534 35.9786 388.424 35.6621C389.319 35.3478 390.3 35.2192 391.369 35.274Z" fill="#FF0000"/>
<path d="M415.088 35.2735C415.206 35.8198 415.206 36.4105 415.088 37.0454C415.004 37.5918 414.814 38.2246 414.523 38.9439C414.236 39.6654 413.747 40.4417 413.055 41.2728V47.4578H404.718L404.676 51.0861L409.772 50.6473V56.7395L404.592 56.0982L404.507 62.7472L412.068 62.1903L413.055 67.0675L399.318 69.2276L398.499 41.1462C397.835 40.3425 397.36 39.5894 397.073 38.8849C396.786 38.1761 396.614 37.5496 396.559 37.0032C396.468 36.3683 396.483 35.7924 396.601 35.2735C397.432 35.246 398.2 35.3621 398.904 35.6194C399.613 35.8789 400.248 36.2016 400.811 36.5898C401.372 36.9779 401.853 37.3829 402.254 37.8048C402.659 38.2225 402.976 38.5727 403.208 38.8596L408.262 39.1633C408.435 38.9334 408.718 38.5959 409.106 38.1508C409.494 37.7015 409.975 37.2543 410.549 36.8092C411.127 36.3598 411.798 35.9865 412.557 35.6869C413.321 35.3832 414.164 35.246 415.088 35.2735Z" fill="#FF0000"/>
<path d="M441.003 35.2749C441.122 35.8487 441.122 36.4815 441.003 37.1734C440.889 37.7472 440.66 38.4264 440.312 39.2069C439.968 39.9832 439.409 40.8059 438.632 41.6708C439.352 42.3585 439.919 43.177 440.337 44.1262C440.752 45.0776 440.961 46.2019 440.961 47.5014C440.961 48.7396 440.809 49.8429 440.506 50.809C440.206 51.771 439.814 52.6126 439.324 53.332C438.835 54.0534 438.263 54.6715 437.611 55.1883C436.964 55.7072 436.28 56.1397 435.561 56.4877L440.489 64.0481L434.354 69.229L429.553 57.7787C429.266 57.7787 429.007 57.7745 428.777 57.7619C428.545 57.745 428.315 57.7239 428.085 57.6944L427.182 67.9295L422.128 68.7564L421.259 39.8482C420.858 39.1901 420.586 38.5804 420.44 38.0172C420.299 37.4561 420.212 36.9709 420.179 36.5659C420.149 36.0765 420.181 35.6461 420.272 35.2749C420.991 35.2475 421.66 35.3255 422.28 35.5111C422.898 35.6968 423.465 35.9499 423.984 36.2705C424.501 36.587 424.959 36.9245 425.36 37.2831C425.765 37.6438 426.113 37.9813 426.406 38.2956C427.615 38.2682 428.88 38.3125 430.203 38.4306C431.53 38.5446 432.84 38.8019 434.135 39.2069C434.281 39.0044 434.548 38.6732 434.937 38.2113C435.325 37.7514 435.814 37.2979 436.405 36.8528C436.995 36.4034 437.679 36.0216 438.455 35.7052C439.231 35.3909 440.079 35.2475 441.003 35.2749ZM428.389 53.8045C429.395 53.8614 430.258 53.7834 430.979 53.5682C431.699 53.3552 432.289 53.0535 432.751 52.6654C433.211 52.273 433.557 51.8174 433.789 51.2984C434.019 50.7816 434.135 50.25 434.135 49.7037C434.135 49.1594 434.055 48.6405 433.899 48.1511C433.74 47.6575 433.468 47.2293 433.08 46.8685C432.692 46.5099 432.171 46.2441 431.519 46.0754C430.872 45.9024 430.072 45.856 429.123 45.9404L428.389 53.8045Z" fill="#FF0000"/>
<path d="M460.006 47.5007C459.487 46.8658 458.869 46.4186 458.149 46.1591C457.428 45.9017 456.727 45.8216 456.048 45.9228C455.373 46.0241 454.804 46.2836 454.344 46.6991C453.888 47.1168 453.66 47.6843 453.66 48.4036C453.66 48.9837 453.897 49.5258 454.369 50.0321C454.842 50.5342 455.428 51.0278 456.133 51.5172C456.841 52.0066 457.605 52.5339 458.428 53.0951C459.248 53.6583 460.01 54.2996 460.714 55.0189C461.423 55.7403 462.014 56.5525 462.486 57.4574C462.963 58.3645 463.204 59.4214 463.204 60.6301C463.204 61.6996 463.052 62.7522 462.748 63.7859C462.448 64.8216 461.959 65.7435 461.28 66.5535C460.605 67.3593 459.727 68.0048 458.647 68.4942C457.567 68.9836 456.234 69.2283 454.648 69.2283C453.065 69.2283 451.728 68.9414 450.631 68.3676C449.538 67.7896 448.661 67.1526 447.998 66.4607C447.222 65.657 446.589 64.7372 446.1 63.7015L448.733 59.0353C449.074 59.896 449.505 60.6723 450.024 61.3642C450.456 61.9443 451.004 62.478 451.669 62.9674C452.331 63.4568 453.124 63.7015 454.048 63.7015C454.677 63.7015 455.242 63.4568 455.744 62.9674C456.251 62.478 456.504 61.8599 456.504 61.1111C456.504 60.4761 456.244 59.9087 455.728 59.4066C455.209 58.9003 454.567 58.4025 453.804 57.9131C453.044 57.4237 452.209 56.9069 451.298 56.3605C450.391 55.8099 449.555 55.175 448.792 54.4536C448.032 53.7342 447.393 52.8925 446.876 51.9306C446.357 50.9645 446.1 49.8022 446.1 48.4458C446.1 46.8932 446.294 45.541 446.682 44.3871C447.07 43.2354 447.623 42.2566 448.344 41.4508C447.596 40.6133 447.062 39.8201 446.741 39.0713C446.425 38.3245 446.227 37.6621 446.142 37.0884C446.024 36.426 446.037 35.8206 446.184 35.2742C447.015 35.2468 447.783 35.3565 448.488 35.6033C449.197 35.8459 449.832 36.1602 450.395 36.5483C450.956 36.9365 451.437 37.3478 451.838 37.7803C452.243 38.2148 452.559 38.5734 452.791 38.8603C454.057 38.5397 455.352 38.3794 456.681 38.3794C457.225 38.3794 457.789 38.4532 458.369 38.5988C458.626 38.2844 458.964 37.9237 459.381 37.5187C459.797 37.1137 460.271 36.7403 460.807 36.3965C461.341 36.0484 461.938 35.7678 462.596 35.5527C463.258 35.3396 463.98 35.2468 464.756 35.2742C464.727 36.1644 464.642 37.042 464.503 37.9068C464.355 38.6557 464.144 39.4257 463.87 40.2188C463.6 41.012 463.22 41.6955 462.731 42.2692L460.006 47.5007Z" fill="#FF0000"/>
<path d="M488.354 35.2735C488.472 35.8198 488.472 36.4105 488.354 37.0454C488.27 37.5918 488.08 38.2246 487.789 38.9439C487.502 39.6654 487.012 40.4417 486.32 41.2728V47.4578H477.984L477.942 51.0861L483.038 50.6473V56.7395L477.857 56.0982L477.773 62.7472L485.333 62.1903L486.32 67.0675L472.583 69.2276L471.765 41.1462C471.101 40.3425 470.626 39.5894 470.339 38.8849C470.052 38.1761 469.879 37.5496 469.824 37.0032C469.734 36.3683 469.748 35.7924 469.866 35.2735C470.698 35.246 471.465 35.3621 472.17 35.6194C472.879 35.8789 473.514 36.2016 474.077 36.5898C474.638 36.9779 475.119 37.3829 475.52 37.8048C475.925 38.2225 476.241 38.5727 476.473 38.8596L481.528 39.1633C481.701 38.9334 481.983 38.5959 482.371 38.1508C482.76 37.7015 483.241 37.2543 483.814 36.8092C484.392 36.3598 485.063 35.9865 485.823 35.6869C486.586 35.3832 487.43 35.246 488.354 35.2735Z" fill="#FF0000"/>
<path d="M187.858 87.2395C187.997 86.8978 188.234 86.6995 188.567 86.6489C188.898 86.5983 189.261 86.6489 189.655 86.8008C190.048 86.9526 190.451 87.1805 190.862 87.4842C191.278 87.7838 191.64 88.1297 191.95 88.5221C192.265 88.9166 192.501 89.3216 192.659 89.7372C192.822 90.1485 192.853 90.5366 192.752 90.9016C192.695 91.121 192.491 91.5239 192.136 92.1082C191.782 92.6946 191.33 93.395 190.786 94.2092C190.246 95.0256 189.641 95.9285 188.972 96.9178C188.307 97.9029 187.622 98.926 186.913 99.9892C186.208 101.048 185.525 102.099 184.863 103.145C184.198 104.191 183.593 105.191 183.049 106.14C182.502 107.085 182.047 107.944 181.682 108.714C181.321 109.48 181.11 110.104 181.049 110.587C180.992 110.988 180.831 111.25 180.568 111.38C180.302 111.515 180.036 111.541 179.766 111.456C179.496 111.376 179.26 111.199 179.057 110.916C178.855 110.636 178.792 110.264 178.872 109.802C179.034 108.651 179.338 107.353 179.783 105.913C180.226 104.474 180.741 102.997 181.327 101.483C180.359 101.765 179.462 101.943 178.635 102.014C177.809 102.082 176.939 102.137 176.028 102.175C175.505 103.086 175.009 103.968 174.543 104.816C174.081 105.659 173.668 106.44 173.303 107.153C172.942 107.868 172.64 108.499 172.4 109.043C172.157 109.589 172.008 110.011 171.953 110.309C171.868 110.697 171.693 110.963 171.43 111.102C171.17 111.241 170.902 111.273 170.628 111.195C170.358 111.11 170.126 110.929 169.936 110.646C169.744 110.366 169.687 109.992 169.767 109.524C169.89 108.558 170.124 107.486 170.468 106.309C170.809 105.128 171.223 103.894 171.708 102.605C171.185 102.685 170.645 102.786 170.088 102.909C169.535 103.027 168.936 103.177 168.291 103.356C167.947 103.457 167.708 103.432 167.573 103.28C167.443 103.128 167.384 102.907 167.396 102.613C167.407 102.322 167.483 102.002 167.624 101.651C167.763 101.297 167.945 100.955 168.164 100.622C168.388 100.291 168.637 100.004 168.907 99.7614C169.181 99.5209 169.459 99.369 169.742 99.3057C169.961 99.2678 170.345 99.2867 170.898 99.3648C171.455 99.4449 172.107 99.5335 172.856 99.6348C173.48 98.0822 174.13 96.5613 174.805 95.0699C175.48 93.5806 176.115 92.2242 176.712 91.0028C177.307 89.7836 177.811 88.7457 178.222 87.8893C178.638 87.0349 178.905 86.4759 179.024 86.2101C179.163 85.8684 179.374 85.6701 179.656 85.6195C179.943 85.5688 180.247 85.6258 180.568 85.7882C180.888 85.9528 181.209 86.1911 181.53 86.5054C181.855 86.8155 182.139 87.1678 182.382 87.5602C182.622 87.9483 182.797 88.3512 182.905 88.7668C183.017 89.1781 183.025 89.5663 182.93 89.9312C182.867 90.1738 182.66 90.6231 182.306 91.2813C181.952 91.9352 181.506 92.7199 180.973 93.6355C180.437 94.5531 179.842 95.572 179.184 96.69C178.53 97.8101 177.872 98.9429 177.209 100.09C178.074 100.131 178.927 100.122 179.766 100.065C180.604 100.004 181.374 99.8605 182.078 99.6348C182.686 98.1835 183.302 96.7701 183.926 95.3905C184.55 94.0067 185.133 92.7558 185.673 91.6357C186.217 90.5177 186.687 89.5684 187.082 88.7921C187.474 88.0158 187.734 87.499 187.858 87.2395Z" fill="#074793"/>
<path d="M198.008 104.861C197.016 105.205 196.164 105.389 195.451 105.41C194.736 105.427 194.118 105.389 193.595 105.292C193.409 105.832 193.276 106.35 193.198 106.844C193.118 107.34 193.124 107.776 193.215 108.152C193.303 108.523 193.479 108.816 193.738 109.03C194.002 109.238 194.375 109.342 194.86 109.342C195.928 109.342 196.885 109.156 197.729 108.785C198.577 108.409 199.315 107.949 199.94 107.409C200.564 106.865 201.079 106.294 201.484 105.697C201.889 105.102 202.18 104.581 202.362 104.136C202.564 103.693 202.8 103.391 203.07 103.233C203.34 103.07 203.585 103.03 203.804 103.115C204.028 103.195 204.18 103.385 204.26 103.688C204.344 103.988 204.285 104.389 204.083 104.895C203.901 105.401 203.564 106.017 203.07 106.743C202.575 107.469 201.944 108.165 201.18 108.827C200.414 109.491 199.512 110.057 198.472 110.523C197.436 110.985 196.271 111.215 194.978 111.215C193.47 111.215 192.28 110.839 191.409 110.084C190.542 109.325 189.977 108.371 189.713 107.224C189.456 106.076 189.477 104.842 189.781 103.52C190.084 102.199 190.637 100.963 191.443 99.8153C192.247 98.6678 193.291 97.7185 194.573 96.9633C195.856 96.2039 197.343 95.8242 199.037 95.8242C200.144 95.8242 200.99 96.0099 201.577 96.3811C202.161 96.7524 202.539 97.2312 202.707 97.8156C202.88 98.402 202.876 99.0538 202.691 99.7732C202.509 100.488 202.193 101.178 201.737 101.84C201.286 102.505 200.737 103.11 200.092 103.655C199.444 104.201 198.75 104.604 198.008 104.861ZM197.341 103.258C198.105 102.961 198.761 102.513 199.307 101.916C199.851 101.322 200.239 100.722 200.471 100.119C200.701 99.5116 200.767 98.9842 200.666 98.5328C200.564 98.0771 200.263 97.8493 199.763 97.8493C199.358 97.8493 198.913 98.016 198.429 98.3471C197.944 98.6804 197.455 99.1192 196.961 99.6635C196.466 100.21 195.991 100.826 195.535 101.511C195.084 102.193 194.679 102.895 194.32 103.621C194.719 103.684 195.175 103.695 195.687 103.655C196.204 103.617 196.755 103.484 197.341 103.258Z" fill="#074793"/>
<path d="M213.252 100.483C213.431 100.101 213.752 99.8794 214.214 99.8161C214.68 99.7549 215.151 99.8161 215.623 100.002C216.1 100.183 216.488 100.464 216.788 100.846C217.091 101.229 217.171 101.694 217.032 102.238C216.931 102.598 216.747 103.027 216.484 103.52C216.224 104.016 215.937 104.52 215.623 105.031C215.313 105.543 215.007 106.052 214.703 106.558C214.4 107.064 214.157 107.516 213.978 107.908C213.796 108.296 213.712 108.604 213.725 108.828C213.735 109.047 213.889 109.148 214.189 109.132C214.655 109.094 215.104 108.895 215.539 108.541C215.971 108.186 216.378 107.76 216.762 107.258C217.144 106.752 217.488 106.218 217.792 105.655C218.095 105.088 218.336 104.581 218.517 104.136C218.72 103.693 218.956 103.392 219.226 103.233C219.496 103.071 219.741 103.031 219.96 103.115C220.184 103.195 220.336 103.385 220.416 103.689C220.5 103.989 220.441 104.389 220.239 104.896C220.057 105.402 219.77 106.018 219.378 106.744C218.984 107.469 218.509 108.165 217.952 108.828C217.399 109.492 216.766 110.064 216.053 110.541C215.338 111.013 214.556 111.249 213.708 111.249C212.841 111.249 212.242 110.944 211.91 110.33C211.577 109.712 211.413 108.95 211.413 108.043C210.843 108.927 210.181 109.672 209.421 110.279C208.666 110.882 207.818 111.144 206.873 111.064C205.844 110.986 205.036 110.665 204.451 110.102C203.865 109.534 203.477 108.828 203.287 107.984C203.097 107.136 203.097 106.195 203.287 105.166C203.477 104.136 203.84 103.12 204.375 102.111C204.909 101.105 205.603 100.16 206.46 99.2761C207.32 98.388 208.324 97.6708 209.472 97.1244C210.624 96.5802 211.91 96.2469 213.328 96.1287C214.75 96.0064 216.29 96.2047 217.944 96.7278C218.325 96.8523 218.612 97.0527 218.804 97.3269C218.994 97.5969 219.074 97.8543 219.04 98.0948C219.011 98.3374 218.859 98.5293 218.585 98.6685C218.315 98.8099 217.91 98.8183 217.37 98.6939C216.442 98.4745 215.551 98.447 214.703 98.6095C213.86 98.7677 213.069 99.0609 212.332 99.487C211.594 99.9089 210.923 100.432 210.316 101.056C209.712 101.681 209.179 102.337 208.712 103.022C208.251 103.71 207.879 104.396 207.599 105.081C207.316 105.763 207.13 106.393 207.042 106.971C206.951 107.545 206.96 108.024 207.067 108.406C207.179 108.79 207.417 109.011 207.784 109.072C208.206 109.153 208.615 109.03 209.016 108.71C209.421 108.385 209.814 107.95 210.198 107.41C210.579 106.866 210.936 106.244 211.269 105.545C211.607 104.849 211.904 104.178 212.164 103.537C212.343 102.892 212.529 102.295 212.72 101.748C212.917 101.204 213.094 100.782 213.252 100.483Z" fill="#074793"/>
<path d="M228.593 83.4829C228.772 83.1454 229.023 82.9513 229.344 82.9007C229.669 82.8501 230.019 82.907 230.39 83.0695C230.762 83.2277 231.133 83.4703 231.504 83.7951C231.88 84.1158 232.209 84.4786 232.491 84.8836C232.772 85.2844 232.983 85.6979 233.124 86.124C233.27 86.5459 233.293 86.9382 233.192 87.2969C233.107 87.5795 232.841 88.0942 232.398 88.841C231.96 89.5835 231.411 90.4864 230.753 91.5496C230.099 92.6085 229.38 93.7603 228.593 95.0091C227.804 96.2579 227.028 97.5236 226.264 98.8061C225.498 100.084 224.781 101.327 224.112 102.536C223.448 103.747 222.908 104.827 222.492 105.776C222.081 106.721 221.836 107.497 221.758 108.105C221.678 108.708 221.851 109.05 222.273 109.134C222.716 109.214 223.159 109.081 223.598 108.738C224.041 108.396 224.45 107.957 224.821 107.421C225.197 106.888 225.541 106.32 225.851 105.717C226.165 105.109 226.412 104.584 226.593 104.139C226.796 103.696 227.032 103.394 227.302 103.236C227.576 103.074 227.825 103.034 228.045 103.118C228.268 103.198 228.42 103.388 228.5 103.692C228.578 103.991 228.519 104.392 228.323 104.898C228.137 105.405 227.846 106.033 227.454 106.78C227.066 107.522 226.587 108.238 226.019 108.923C225.456 109.605 224.821 110.178 224.112 110.645C223.408 111.106 222.632 111.307 221.784 111.252C220.758 111.191 220.054 110.771 219.666 109.995C219.284 109.219 219.14 108.219 219.235 106.991C219.326 105.759 219.596 104.358 220.045 102.789C220.501 101.215 221.05 99.6056 221.691 97.9623C222.336 96.3149 223.035 94.68 223.783 93.0599C224.53 91.4356 225.237 89.959 225.901 88.63C226.564 87.2969 227.144 86.1725 227.64 85.2549C228.133 84.3394 228.452 83.7487 228.593 83.4829Z" fill="#074793"/>
<path d="M230.192 96.974C230.415 96.4677 230.795 96.2019 231.331 96.1724C231.864 96.1449 232.398 96.2652 232.934 96.5352C233.468 96.8052 233.904 97.1891 234.242 97.6827C234.583 98.1785 234.685 98.6995 234.546 99.2437C234.444 99.6045 234.216 100.102 233.862 100.737C233.512 101.374 233.122 102.066 232.689 102.813C232.255 103.556 231.812 104.313 231.356 105.083C230.905 105.849 230.529 106.534 230.225 107.142C229.922 107.745 229.732 108.23 229.66 108.601C229.592 108.973 229.711 109.15 230.014 109.133C230.474 109.095 230.921 108.897 231.356 108.542C231.788 108.188 232.196 107.762 232.579 107.26C232.968 106.753 233.309 106.22 233.609 105.657C233.913 105.089 234.153 104.583 234.335 104.138C234.537 103.695 234.773 103.393 235.043 103.235C235.318 103.072 235.566 103.032 235.786 103.117C236.009 103.197 236.161 103.387 236.242 103.691C236.32 103.99 236.261 104.391 236.064 104.897C235.862 105.403 235.562 106.019 235.17 106.745C234.775 107.471 234.301 108.167 233.744 108.829C233.191 109.494 232.556 110.065 231.837 110.542C231.122 111.015 230.343 111.251 229.5 111.251C228.673 111.251 228.093 110.951 227.761 110.348C227.43 109.74 227.259 108.968 227.247 108.028C227.236 107.089 227.356 106.057 227.61 104.931C227.863 103.8 228.15 102.708 228.47 101.649C228.791 100.592 229.116 99.6382 229.449 98.7881C229.787 97.9401 230.033 97.3347 230.192 96.974ZM237.963 91.9197C237.963 92.2867 237.891 92.6327 237.752 92.9575C237.611 93.2782 237.419 93.5608 237.178 93.8013C236.936 94.0439 236.655 94.2359 236.334 94.3751C236.014 94.5164 235.67 94.586 235.305 94.586C234.556 94.586 233.925 94.3245 233.415 93.8013C232.902 93.2739 232.647 92.6453 232.647 91.9197C232.647 91.1771 232.902 90.5506 233.415 90.038C233.925 89.5212 234.556 89.2617 235.305 89.2617C236.031 89.2617 236.655 89.5212 237.178 90.038C237.701 90.5506 237.963 91.1771 237.963 91.9197Z" fill="#074793"/>
<path d="M237.836 96.9197C238.059 96.4134 238.46 96.1518 239.034 96.135C239.608 96.1139 240.169 96.2489 240.722 96.54C241.278 96.8332 241.721 97.2319 242.055 97.7382C242.386 98.2402 242.43 98.7423 242.19 99.2485C242.032 99.5692 241.789 99.9573 241.464 100.413C241.143 100.864 240.781 101.379 240.376 101.957C239.975 102.531 239.553 103.162 239.11 103.847C238.665 104.529 238.241 105.254 237.836 106.024C238.258 105.457 238.715 104.847 239.211 104.193C239.705 103.535 240.209 102.881 240.722 102.227C241.238 101.569 241.753 100.923 242.266 100.286C242.782 99.6514 243.278 99.0713 243.751 98.5482C244.223 98.025 244.656 97.5736 245.05 97.1897C245.443 96.8079 245.78 96.5358 246.063 96.3712C246.421 96.1687 246.85 96.116 247.345 96.2109C247.839 96.3016 248.299 96.4978 248.721 96.8015C249.147 97.1011 249.484 97.466 249.733 97.8985C249.986 98.333 250.041 98.7823 249.902 99.2485C249.801 99.6093 249.567 100.107 249.202 100.742C248.841 101.379 248.427 102.071 247.961 102.818C247.499 103.56 247.033 104.318 246.561 105.088C246.088 105.853 245.685 106.539 245.354 107.146C245.021 107.75 244.808 108.235 244.713 108.606C244.622 108.977 244.73 109.155 245.033 109.138C245.499 109.1 245.999 108.901 246.535 108.547C247.069 108.193 247.582 107.767 248.071 107.265C248.565 106.758 249.01 106.225 249.404 105.661C249.796 105.094 250.096 104.588 250.299 104.143C250.478 103.7 250.708 103.398 250.99 103.24C251.271 103.077 251.518 103.037 251.733 103.122C251.946 103.202 252.092 103.392 252.172 103.695C252.25 103.995 252.199 104.396 252.02 104.902C251.817 105.408 251.474 106.024 250.99 106.75C250.505 107.475 249.927 108.172 249.252 108.834C248.577 109.498 247.835 110.07 247.025 110.547C246.219 111.019 245.396 111.256 244.552 111.256C243.803 111.256 243.266 111.066 242.941 110.682C242.62 110.294 242.439 109.779 242.401 109.138C242.361 108.492 242.43 107.76 242.612 106.944C242.797 106.13 243.029 105.288 243.312 104.421C243.593 103.55 243.894 102.691 244.215 101.847C244.54 100.999 244.824 100.223 245.067 99.5185C244.358 100.183 243.569 101.01 242.704 101.999C241.837 102.984 240.996 103.991 240.181 105.02C239.365 106.049 238.608 107.02 237.912 107.931C237.213 108.838 236.684 109.541 236.325 110.041C236.144 110.408 235.916 110.703 235.642 110.927C235.372 111.146 235.123 111.258 234.891 111.264C234.655 111.275 234.467 111.178 234.326 110.969C234.186 110.756 234.146 110.395 234.207 109.889C234.349 108.944 234.57 107.836 234.874 106.564C235.178 105.294 235.509 104.033 235.87 102.784C236.235 101.535 236.591 100.383 236.941 99.3245C237.296 98.2676 237.593 97.466 237.836 96.9197Z" fill="#074793"/>
<path d="M261.064 100.485C261.182 99.941 261.469 99.6668 261.924 99.6668C262.38 99.6668 262.838 99.8187 263.3 100.122C263.766 100.422 264.146 100.823 264.439 101.329C264.73 101.835 264.776 102.34 264.574 102.839C264.49 103.021 264.384 103.282 264.262 103.624C264.144 103.968 264.002 104.373 263.84 104.839C263.682 105.301 263.49 105.816 263.266 106.383C263.047 106.947 262.806 107.539 262.549 108.164C263.471 107.579 264.249 106.94 264.886 106.248C265.521 105.552 266.011 104.848 266.354 104.139C266.534 103.757 266.755 103.502 267.021 103.371C267.285 103.242 267.521 103.217 267.73 103.295C267.943 103.375 268.101 103.54 268.202 103.793C268.304 104.046 268.282 104.354 268.143 104.713C267.979 105.118 267.734 105.58 267.409 106.096C267.088 106.609 266.654 107.139 266.11 107.683C265.57 108.223 264.905 108.767 264.118 109.311C263.329 109.858 262.393 110.353 261.309 110.796C260.779 111.826 260.19 112.832 259.545 113.817C258.904 114.806 258.189 115.69 257.402 116.467C256.619 117.243 255.773 117.867 254.862 118.34C253.955 118.812 252.98 119.049 251.934 119.049C251.086 119.049 250.411 118.871 249.909 118.517C249.403 118.167 249.086 117.715 248.955 117.159C248.82 116.606 248.896 115.994 249.183 115.319C249.466 114.644 249.964 113.965 250.677 113.286C251.392 112.611 252.335 111.986 253.512 111.412C254.693 110.839 256.121 110.381 257.798 110.037C257.86 110.037 257.929 110.018 258.009 109.978C258.127 109.737 258.241 109.486 258.355 109.227C258.467 108.963 258.583 108.691 258.701 108.408C258.239 108.87 257.731 109.233 257.174 109.497C256.621 109.756 256.003 109.858 255.318 109.801C254.288 109.716 253.47 109.413 252.862 108.889C252.259 108.366 251.845 107.708 251.622 106.915C251.402 106.118 251.369 105.244 251.521 104.299C251.672 103.35 251.995 102.409 252.491 101.481C252.985 100.553 253.641 99.6879 254.457 98.8821C255.271 98.072 256.239 97.4223 257.36 96.9329C258.478 96.4393 259.743 96.1524 261.157 96.0723C262.568 95.9879 264.097 96.2073 265.747 96.7304C266.135 96.8549 266.424 97.0553 266.616 97.3295C266.806 97.5995 266.886 97.8569 266.852 98.0974C266.823 98.34 266.671 98.5319 266.397 98.6711C266.127 98.8125 265.717 98.8209 265.173 98.6965C263.924 98.3927 262.772 98.399 261.722 98.7133C260.676 99.0297 259.739 99.5107 258.912 100.156C258.089 100.797 257.395 101.538 256.828 102.375C256.265 103.209 255.858 104.012 255.604 104.789C255.351 105.565 255.269 106.238 255.36 106.805C255.455 107.368 255.733 107.7 256.195 107.801C256.638 107.881 257.06 107.774 257.461 107.48C257.866 107.189 258.239 106.793 258.583 106.291C258.925 105.784 259.243 105.225 259.537 104.611C259.828 104 260.079 103.411 260.288 102.848C260.501 102.28 260.671 101.781 260.802 101.346C260.937 100.914 261.013 100.646 261.03 100.544C261.051 100.523 261.064 100.502 261.064 100.485ZM252.17 117.386C252.693 117.386 253.387 116.927 254.254 116.011C255.126 115.093 256.035 113.777 256.98 112.062C255.505 112.467 254.33 112.965 253.453 113.556C252.58 114.15 251.961 114.737 251.596 115.311C251.238 115.889 251.113 116.378 251.225 116.779C251.333 117.184 251.647 117.386 252.17 117.386Z" fill="#074793"/>
<path d="M292.906 97.5845C292.522 98.1878 292.13 98.8881 291.725 99.6855C291.324 100.479 290.953 101.306 290.611 102.166C290.267 103.023 289.97 103.862 289.717 104.689C289.464 105.516 289.286 106.254 289.185 106.9C289.084 107.541 289.088 108.064 289.202 108.469C289.314 108.874 289.55 109.077 289.911 109.077C290.434 109.077 290.961 108.83 291.497 108.334C292.031 107.841 292.539 107.21 293.024 106.444C292.484 105.961 292.096 105.381 291.86 104.706C291.628 104.031 291.527 103.32 291.556 102.571C291.59 101.825 291.742 101.084 292.012 100.352C292.286 99.6159 292.655 98.9472 293.117 98.3439C293.583 97.7363 294.123 97.2364 294.737 96.8419C295.349 96.4496 296.02 96.2133 296.745 96.1331C296.908 96.0888 297.028 96.0656 297.108 96.0656C297.473 96.0656 297.893 96.1416 298.366 96.2935C298.838 96.4453 299.245 96.7449 299.589 97.1879C299.931 97.633 300.138 98.2595 300.205 99.0695C300.277 99.8754 300.072 100.932 299.589 102.242C299.37 102.822 299.102 103.453 298.787 104.132C298.477 104.807 298.108 105.478 297.682 106.14C298.53 106.103 299.287 105.892 299.952 105.508C300.614 105.126 301.129 104.643 301.496 104.056C301.715 103.691 301.96 103.464 302.23 103.373C302.504 103.284 302.745 103.295 302.947 103.407C303.15 103.514 303.276 103.706 303.327 103.98C303.378 104.25 303.289 104.577 303.065 104.959C302.846 105.343 302.521 105.742 302.095 106.157C301.673 106.569 301.175 106.925 300.602 107.229C300.028 107.533 299.378 107.761 298.652 107.912C297.927 108.06 297.161 108.062 296.357 107.921C295.53 108.872 294.564 109.659 293.463 110.283C292.366 110.908 291.092 111.22 289.641 111.22C288.673 111.22 287.966 110.973 287.523 110.478C287.078 109.984 286.825 109.334 286.763 108.528C286.183 109.435 285.519 110.161 284.772 110.705C284.023 111.25 283.186 111.433 282.258 111.254C281.553 111.108 281.036 110.79 280.705 110.3C280.374 109.807 280.188 109.191 280.148 108.452C280.104 107.716 280.188 106.875 280.401 105.93C280.616 104.98 280.912 103.987 281.296 102.951C281.678 101.911 282.118 100.848 282.62 99.7614C283.127 98.6708 283.641 97.6013 284.165 96.555C284.344 96.1901 284.591 95.9623 284.907 95.8716C285.221 95.783 285.544 95.7872 285.877 95.8884C286.209 95.9897 286.54 96.1732 286.873 96.4369C287.204 96.6964 287.481 96.9896 287.7 97.3145C287.924 97.6351 288.076 97.9726 288.156 98.327C288.24 98.6772 288.2 98.9915 288.038 99.272C287.694 99.9197 287.299 100.601 286.856 101.314C286.411 102.029 285.966 102.74 285.523 103.449C285.084 104.153 284.671 104.833 284.283 105.491C283.899 106.145 283.587 106.729 283.346 107.246C283.104 107.758 282.962 108.191 282.924 108.545C282.884 108.9 282.996 109.117 283.262 109.195C283.603 109.313 283.956 109.258 284.316 109.026C284.681 108.796 285.036 108.459 285.38 108.014C285.721 107.571 286.055 107.048 286.375 106.444C286.696 105.837 286.996 105.221 287.278 104.596C287.481 103.894 287.717 103.185 287.987 102.47C288.261 101.751 288.546 101.065 288.839 100.411C289.13 99.753 289.417 99.1539 289.7 98.6139C289.98 98.0696 290.234 97.614 290.459 97.2469C290.78 96.7027 291.13 96.3441 291.514 96.1753C291.896 96.0024 292.227 95.9559 292.51 96.0403C292.797 96.1205 292.993 96.3019 293.1 96.5888C293.212 96.8715 293.147 97.2026 292.906 97.5845ZM295.632 98.4283H295.564C295.322 98.4515 295.043 98.6793 294.729 99.1117C294.419 99.5463 294.157 100.08 293.944 100.715C293.735 101.346 293.619 102.014 293.598 102.723C293.581 103.428 293.744 104.052 294.088 104.596C294.446 103.871 294.756 103.141 295.016 102.403C295.279 101.666 295.488 101.008 295.64 100.428C295.792 99.8437 295.872 99.3649 295.885 98.9936C295.895 98.6181 295.811 98.4283 295.632 98.4283Z" fill="#074793"/>
<path d="M316.925 85.9412C317.104 85.5995 317.347 85.397 317.65 85.3337C317.954 85.2725 318.277 85.3232 318.621 85.4856C318.963 85.6501 319.304 85.8885 319.642 86.2028C319.984 86.5129 320.283 86.8588 320.536 87.2407C320.789 87.6246 320.975 88.0296 321.093 88.4557C321.215 88.8776 321.228 89.27 321.127 89.6286C321.064 89.8311 320.926 90.1349 320.713 90.5399C320.505 90.9407 320.228 91.4132 319.886 91.9574C320.751 91.6938 321.658 91.4069 322.603 91.0968C323.553 90.7825 324.595 90.4133 325.725 89.9914C326.046 89.8733 326.282 89.8859 326.434 90.0252C326.586 90.1665 326.666 90.3711 326.679 90.6411C326.69 90.9111 326.639 91.236 326.527 91.6115C326.413 91.9828 326.261 92.3456 326.071 92.7C325.879 93.0544 325.658 93.3645 325.405 93.6281C325.152 93.8876 324.884 94.0564 324.603 94.1344C324.422 94.1745 324.11 94.2399 323.667 94.3285C323.222 94.4192 322.696 94.5141 322.089 94.6154C321.485 94.7166 320.817 94.8348 320.081 94.9698C319.349 95.1006 318.589 95.2356 317.802 95.3748C317.216 96.3198 316.613 97.3071 315.988 98.3365C315.364 99.3659 314.767 100.383 314.199 101.383C313.636 102.378 313.128 103.33 312.672 104.235C312.221 105.142 311.875 105.947 311.634 106.656C311.392 107.361 311.273 107.935 311.28 108.378C311.29 108.823 311.487 109.076 311.87 109.137C312.313 109.217 312.759 109.084 313.204 108.74C313.647 108.399 314.056 107.96 314.427 107.424C314.803 106.89 315.146 106.323 315.457 105.72C315.771 105.112 316.018 104.587 316.199 104.142C316.402 103.699 316.638 103.397 316.908 103.239C317.182 103.076 317.431 103.036 317.65 103.121C317.87 103.201 318.017 103.391 318.098 103.695C318.182 103.994 318.123 104.395 317.92 104.901C317.739 105.407 317.452 106.036 317.06 106.783C316.665 107.525 316.186 108.24 315.625 108.926C315.062 109.607 314.427 110.181 313.718 110.647C313.014 111.109 312.238 111.31 311.39 111.255C310.563 111.211 309.938 110.951 309.516 110.479C309.094 110.006 308.82 109.388 308.698 108.622C308.135 109.348 307.485 109.97 306.749 110.487C306.01 111 305.19 111.255 304.285 111.255C303.458 111.255 302.878 110.955 302.547 110.352C302.215 109.745 302.045 108.972 302.032 108.032C302.021 107.093 302.142 106.061 302.395 104.935C302.648 103.804 302.935 102.712 303.255 101.653C303.576 100.596 303.901 99.6423 304.234 98.7921C304.572 97.9441 304.819 97.3387 304.977 96.978C305.2 96.4717 305.58 96.2059 306.116 96.1764C306.65 96.149 307.183 96.2692 307.719 96.5392C308.253 96.8092 308.689 97.1932 309.027 97.6868C309.369 98.1825 309.47 98.7035 309.331 99.2478C309.229 99.6085 309.002 100.106 308.647 100.741C308.297 101.378 307.907 102.07 307.474 102.817C307.04 103.56 306.597 104.317 306.141 105.087C305.69 105.853 305.314 106.538 305.01 107.146C304.707 107.749 304.517 108.234 304.445 108.605C304.378 108.977 304.496 109.154 304.8 109.137C305.243 109.099 305.681 108.907 306.116 108.563C306.548 108.221 306.951 107.802 307.322 107.306C307.694 106.812 308.031 106.293 308.335 105.753C308.639 105.209 308.879 104.703 309.061 104.235C309.341 103.026 309.782 101.762 310.385 100.446C310.993 99.1254 311.579 97.7965 312.149 96.4633L310.909 96.6742C310.504 96.7544 310.185 96.7586 309.955 96.6911C309.723 96.6194 309.586 96.5097 309.542 96.362C309.502 96.2101 309.558 96.0329 309.71 95.8304C309.862 95.6279 310.12 95.4465 310.487 95.282C310.868 95.1027 311.309 94.9276 311.811 94.7588C312.318 94.5858 312.75 94.4171 313.111 94.2526C313.577 93.2295 314.016 92.2591 314.427 91.3415C314.843 90.4196 315.216 89.5927 315.549 88.8607C315.881 88.1245 316.167 87.5065 316.41 87.0044C316.651 86.4981 316.824 86.1437 316.925 85.9412ZM312.267 91.4427C312.267 91.8098 312.195 92.1515 312.056 92.4722C311.915 92.7928 311.723 93.0755 311.482 93.3159C311.24 93.5585 310.955 93.7505 310.63 93.8897C310.309 94.0311 309.968 94.1007 309.609 94.1007C308.86 94.1007 308.227 93.8391 307.711 93.3159C307.198 92.7928 306.943 92.1684 306.943 91.4427C306.943 90.696 307.198 90.0652 307.711 89.5526C308.227 89.0422 308.86 88.7848 309.609 88.7848C310.335 88.7848 310.959 89.0422 311.482 89.5526C312.005 90.0652 312.267 90.696 312.267 91.4427Z" fill="#074793"/>
<path d="M326.911 83.3987C327.05 83.057 327.286 82.8587 327.619 82.808C327.95 82.7574 328.313 82.808 328.708 82.9599C329.1 83.1118 329.503 83.3396 329.914 83.6434C330.33 83.9429 330.693 84.2889 331.003 84.6813C331.317 85.0757 331.556 85.4808 331.72 85.8963C331.883 86.3077 331.914 86.6937 331.813 87.0523C331.75 87.278 331.505 87.74 331.079 88.4361C330.657 89.128 330.127 89.9697 329.493 90.9591C328.862 91.9442 328.147 93.0517 327.349 94.2836C326.556 95.5155 325.74 96.777 324.902 98.0638C324.063 99.3526 323.244 100.644 322.447 101.937C321.654 103.226 320.945 104.424 320.321 105.531C320.945 104.688 321.633 103.776 322.388 102.797C323.147 101.819 323.89 100.89 324.615 100.013C325.341 99.1354 326.016 98.3717 326.64 97.7178C327.265 97.0597 327.78 96.6103 328.185 96.3677C328.526 96.1652 328.944 96.1125 329.433 96.2074C329.927 96.2981 330.387 96.4943 330.809 96.7981C331.235 97.0976 331.572 97.4626 331.821 97.895C332.074 98.3296 332.142 98.7789 332.024 99.2451C331.923 99.6058 331.695 100.104 331.34 100.739C330.986 101.376 330.592 102.068 330.159 102.814C329.725 103.557 329.282 104.314 328.826 105.084C328.374 105.85 327.999 106.535 327.695 107.143C327.396 107.746 327.206 108.231 327.121 108.603C327.041 108.974 327.155 109.151 327.459 109.134C327.919 109.096 328.417 108.898 328.952 108.544C329.486 108.189 329.995 107.763 330.48 107.261C330.963 106.755 331.404 106.221 331.804 105.658C332.21 105.09 332.505 104.584 332.69 104.139C332.893 103.696 333.129 103.394 333.399 103.236C333.669 103.074 333.914 103.034 334.133 103.118C334.357 103.198 334.509 103.388 334.589 103.692C334.673 103.991 334.614 104.392 334.412 104.898C334.23 105.405 333.899 106.021 333.416 106.746C332.931 107.472 332.353 108.168 331.678 108.831C331.003 109.495 330.26 110.067 329.45 110.543C328.644 111.016 327.818 111.252 326.97 111.252C326.227 111.252 325.687 111.056 325.349 110.662C325.016 110.269 324.826 109.748 324.776 109.101C324.725 108.455 324.784 107.721 324.953 106.898C325.126 106.071 325.349 105.225 325.62 104.358C325.894 103.487 326.185 102.624 326.489 101.768C326.792 100.914 327.054 100.144 327.273 99.456C326.75 99.9412 326.176 100.532 325.552 101.228C324.928 101.92 324.291 102.652 323.645 103.422C322.997 104.188 322.367 104.958 321.755 105.734C321.141 106.506 320.576 107.219 320.059 107.877C319.546 108.531 319.114 109.098 318.759 109.581C318.409 110.067 318.163 110.4 318.017 110.586C317.937 110.946 317.766 111.183 317.502 111.294C317.245 111.406 316.985 111.415 316.726 111.32C316.462 111.229 316.234 111.045 316.042 110.763C315.853 110.482 315.796 110.119 315.874 109.674C316.038 108.489 316.405 107.054 316.979 105.371C317.553 103.683 318.228 101.916 319.004 100.064C319.78 98.2072 320.607 96.3488 321.485 94.4861C322.362 92.6192 323.183 90.9084 323.949 89.3559C324.712 87.8033 325.368 86.4933 325.915 85.4238C326.459 84.3564 326.792 83.6814 326.911 83.3987Z" fill="#074793"/>
<path d="M368.526 87.2395C368.665 86.8978 368.902 86.6995 369.235 86.6489C369.566 86.5983 369.929 86.6489 370.323 86.8008C370.716 86.9526 371.119 87.1805 371.53 87.4842C371.946 87.7838 372.308 88.1297 372.618 88.5221C372.933 88.9166 373.169 89.3216 373.327 89.7372C373.49 90.1485 373.521 90.5366 373.42 90.9016C373.363 91.121 373.158 91.5239 372.804 92.1082C372.45 92.6946 371.998 93.395 371.454 94.2092C370.914 95.0256 370.309 95.9285 369.64 96.9178C368.975 97.9029 368.29 98.926 367.581 99.9892C366.876 101.048 366.193 102.099 365.531 103.145C364.866 104.191 364.261 105.191 363.716 106.14C363.17 107.085 362.714 107.944 362.35 108.714C361.989 109.48 361.778 110.104 361.717 110.587C361.66 110.988 361.499 111.25 361.236 111.38C360.97 111.515 360.704 111.541 360.434 111.456C360.164 111.376 359.928 111.199 359.725 110.916C359.523 110.636 359.46 110.264 359.54 109.802C359.702 108.651 360.006 107.353 360.451 105.913C360.894 104.474 361.409 102.997 361.995 101.483C361.027 101.765 360.13 101.943 359.303 102.014C358.477 102.082 357.607 102.137 356.696 102.175C356.173 103.086 355.677 103.968 355.211 104.816C354.749 105.659 354.336 106.44 353.971 107.153C353.61 107.868 353.308 108.499 353.068 109.043C352.825 109.589 352.675 110.011 352.621 110.309C352.536 110.697 352.361 110.963 352.097 111.102C351.838 111.241 351.57 111.273 351.296 111.195C351.026 111.11 350.794 110.929 350.604 110.646C350.412 110.366 350.355 109.992 350.435 109.524C350.558 108.558 350.792 107.486 351.136 106.309C351.477 105.128 351.891 103.894 352.376 102.605C351.853 102.685 351.313 102.786 350.756 102.909C350.203 103.027 349.604 103.177 348.959 103.356C348.615 103.457 348.376 103.432 348.241 103.28C348.111 103.128 348.052 102.907 348.064 102.613C348.075 102.322 348.151 102.002 348.292 101.651C348.431 101.297 348.613 100.955 348.832 100.622C349.056 100.291 349.305 100.004 349.575 99.7614C349.849 99.5209 350.127 99.369 350.41 99.3057C350.629 99.2678 351.013 99.2867 351.566 99.3648C352.123 99.4449 352.775 99.5335 353.523 99.6348C354.148 98.0822 354.798 96.5613 355.473 95.0699C356.148 93.5806 356.783 92.2242 357.38 91.0028C357.974 89.7836 358.479 88.7457 358.89 87.8893C359.306 87.0349 359.573 86.4759 359.692 86.2101C359.831 85.8684 360.042 85.6701 360.324 85.6195C360.611 85.5688 360.915 85.6258 361.236 85.7882C361.556 85.9528 361.877 86.1911 362.198 86.5054C362.523 86.8155 362.807 87.1678 363.05 87.5602C363.29 87.9483 363.465 88.3512 363.573 88.7668C363.685 89.1781 363.693 89.5663 363.598 89.9312C363.535 90.1738 363.328 90.6231 362.974 91.2813C362.62 91.9352 362.174 92.7199 361.641 93.6355C361.105 94.5531 360.51 95.572 359.852 96.69C359.198 97.8101 358.54 98.9429 357.877 100.09C358.742 100.131 359.595 100.122 360.434 100.065C361.272 100.004 362.042 99.8605 362.746 99.6348C363.354 98.1835 363.97 96.7701 364.594 95.3905C365.218 94.0067 365.801 92.7558 366.341 91.6357C366.885 90.5177 367.355 89.5684 367.75 88.7921C368.142 88.0158 368.402 87.499 368.526 87.2395Z" fill="#074793"/>
<path d="M378.656 104.861C377.665 105.205 376.812 105.389 376.099 105.41C375.384 105.427 374.766 105.389 374.243 105.292C374.057 105.832 373.924 106.35 373.846 106.844C373.766 107.34 373.773 107.776 373.863 108.152C373.952 108.523 374.127 108.816 374.386 109.03C374.65 109.238 375.024 109.342 375.509 109.342C376.576 109.342 377.534 109.156 378.378 108.785C379.226 108.409 379.964 107.949 380.588 107.409C381.213 106.865 381.727 106.294 382.132 105.697C382.537 105.102 382.829 104.581 383.01 104.136C383.212 103.693 383.449 103.391 383.719 103.233C383.989 103.07 384.233 103.03 384.453 103.115C384.676 103.195 384.828 103.385 384.909 103.688C384.993 103.988 384.934 104.389 384.731 104.895C384.55 105.401 384.212 106.017 383.719 106.743C383.223 107.469 382.592 108.165 381.829 108.827C381.063 109.491 380.16 110.057 379.12 110.523C378.084 110.985 376.92 111.215 375.627 111.215C374.119 111.215 372.929 110.839 372.058 110.084C371.191 109.325 370.625 108.371 370.362 107.224C370.104 106.076 370.125 104.842 370.429 103.52C370.733 102.199 371.286 100.963 372.091 99.8153C372.895 98.6678 373.939 97.7185 375.222 96.9633C376.504 96.2039 377.992 95.8242 379.685 95.8242C380.793 95.8242 381.639 96.0099 382.225 96.3811C382.81 96.7524 383.187 97.2312 383.356 97.8156C383.529 98.402 383.525 99.0538 383.339 99.7732C383.158 100.488 382.841 101.178 382.386 101.84C381.934 102.505 381.386 103.11 380.74 103.655C380.093 104.201 379.399 104.604 378.656 104.861ZM377.989 103.258C378.753 102.961 379.409 102.513 379.955 101.916C380.5 101.322 380.888 100.722 381.12 100.119C381.35 99.5116 381.415 98.9842 381.314 98.5328C381.213 98.0771 380.911 97.8493 380.411 97.8493C380.006 97.8493 379.561 98.016 379.078 98.3471C378.593 98.6804 378.103 99.1192 377.61 99.6635C377.114 100.21 376.639 100.826 376.184 101.511C375.732 102.193 375.327 102.895 374.969 103.621C375.367 103.684 375.823 103.695 376.336 103.655C376.852 103.617 377.403 103.484 377.989 103.258Z" fill="#074793"/>
<path d="M393.916 100.483C394.095 100.101 394.416 99.8794 394.878 99.8161C395.344 99.7549 395.815 99.8161 396.287 100.002C396.764 100.183 397.152 100.464 397.452 100.846C397.755 101.229 397.836 101.694 397.696 102.238C397.595 102.598 397.412 103.027 397.148 103.52C396.888 104.016 396.601 104.52 396.287 105.031C395.977 105.543 395.671 106.052 395.367 106.558C395.064 107.064 394.821 107.516 394.642 107.908C394.46 108.296 394.376 108.604 394.389 108.828C394.399 109.047 394.553 109.148 394.853 109.132C395.319 109.094 395.768 108.895 396.203 108.541C396.635 108.186 397.042 107.76 397.426 107.258C397.808 106.752 398.152 106.218 398.456 105.655C398.759 105.088 399 104.581 399.181 104.136C399.384 103.693 399.62 103.392 399.89 103.233C400.16 103.071 400.405 103.031 400.624 103.115C400.848 103.195 401 103.385 401.08 103.689C401.164 103.989 401.105 104.389 400.903 104.896C400.721 105.402 400.434 106.018 400.042 106.744C399.648 107.469 399.173 108.165 398.616 108.828C398.063 109.492 397.431 110.064 396.718 110.541C396.002 111.013 395.22 111.249 394.372 111.249C393.505 111.249 392.906 110.944 392.575 110.33C392.241 109.712 392.077 108.95 392.077 108.043C391.507 108.927 390.845 109.672 390.085 110.279C389.33 110.882 388.482 111.144 387.537 111.064C386.508 110.986 385.7 110.665 385.115 110.102C384.529 109.534 384.141 108.828 383.951 107.984C383.761 107.136 383.761 106.195 383.951 105.166C384.141 104.136 384.504 103.12 385.039 102.111C385.573 101.105 386.267 100.16 387.124 99.2761C387.984 98.388 388.988 97.6708 390.136 97.1244C391.288 96.5802 392.575 96.2469 393.992 96.1287C395.414 96.0064 396.954 96.2047 398.608 96.7278C398.989 96.8523 399.276 97.0527 399.468 97.3269C399.658 97.5969 399.738 97.8543 399.705 98.0948C399.675 98.3374 399.523 98.5293 399.249 98.6685C398.979 98.8099 398.574 98.8183 398.034 98.6939C397.106 98.4745 396.215 98.447 395.367 98.6095C394.524 98.7677 393.733 99.0609 392.996 99.487C392.258 99.9089 391.587 100.432 390.98 101.056C390.376 101.681 389.843 102.337 389.377 103.022C388.915 103.71 388.543 104.396 388.263 105.081C387.98 105.763 387.794 106.393 387.706 106.971C387.615 107.545 387.624 108.024 387.731 108.406C387.843 108.79 388.081 109.011 388.448 109.072C388.87 109.153 389.28 109.03 389.68 108.71C390.085 108.385 390.478 107.95 390.862 107.41C391.243 106.866 391.6 106.244 391.933 105.545C392.271 104.849 392.568 104.178 392.828 103.537C393.007 102.892 393.193 102.295 393.385 101.748C393.581 101.204 393.758 100.782 393.916 100.483Z" fill="#074793"/>
<path d="M410.033 101.84C409.932 102.2 409.742 102.639 409.468 103.156C409.197 103.669 408.902 104.198 408.582 104.742C408.261 105.289 407.942 105.829 407.628 106.362C407.318 106.898 407.065 107.375 406.869 107.797C406.677 108.219 406.582 108.556 406.582 108.809C406.582 109.062 406.734 109.17 407.037 109.13C407.504 109.092 407.953 108.894 408.387 108.539C408.82 108.185 409.227 107.759 409.611 107.257C409.993 106.75 410.332 106.217 410.632 105.654C410.936 105.086 411.18 104.58 411.366 104.135C411.569 103.692 411.805 103.39 412.075 103.232C412.345 103.069 412.59 103.029 412.809 103.114C413.033 103.194 413.184 103.384 413.265 103.688C413.349 103.987 413.29 104.388 413.087 104.894C412.906 105.4 412.619 106.016 412.227 106.742C411.832 107.468 411.358 108.164 410.801 108.826C410.248 109.491 409.613 110.062 408.894 110.539C408.179 111.012 407.4 111.248 406.556 111.248C405.808 111.248 405.242 111.062 404.86 110.691C404.476 110.315 404.215 109.83 404.076 109.24C403.934 108.645 403.898 107.97 403.966 107.215C404.038 106.455 404.164 105.687 404.346 104.911C404.531 104.135 404.746 103.384 404.995 102.658C405.249 101.932 405.476 101.308 405.679 100.785V100.751C405.818 100.245 405.774 99.8461 405.544 99.5529C405.312 99.2618 405.046 98.9749 404.742 98.6923C404.578 99.0973 404.375 99.5867 404.135 100.16C403.892 100.734 403.65 101.321 403.409 101.916C403.167 102.513 402.93 103.078 402.7 103.612C402.468 104.147 402.283 104.573 402.143 104.894C401.941 105.339 401.696 105.624 401.409 105.746C401.127 105.864 400.88 105.864 400.667 105.746C400.458 105.624 400.314 105.415 400.236 105.122C400.152 104.831 400.211 104.502 400.414 104.135C400.553 103.894 400.726 103.552 400.928 103.114C401.131 102.671 401.346 102.192 401.578 101.679C401.814 101.162 402.053 100.629 402.295 100.076C402.536 99.5192 402.755 99.0108 402.953 98.5488C403.156 98.0826 403.32 97.6839 403.451 97.3506C403.586 97.0195 403.662 96.8233 403.679 96.76C403.639 96.2938 403.74 95.739 403.983 95.0977C404.145 94.6315 404.375 94.3193 404.675 94.1611C404.979 93.9987 405.257 93.9586 405.51 94.043C405.763 94.1231 405.943 94.2961 406.05 94.5661C406.162 94.8361 406.128 95.1737 405.949 95.5787C405.73 96.0006 405.628 96.3508 405.645 96.625C405.666 96.895 405.789 97.1481 406.008 97.3844C406.232 97.6164 406.544 97.8632 406.945 98.1269C407.35 98.3864 407.843 98.726 408.43 99.1479C408.693 99.266 408.94 99.4179 409.172 99.6036C409.402 99.785 409.594 99.9959 409.746 100.236C409.898 100.479 410.001 100.738 410.058 101.013C410.119 101.283 410.111 101.559 410.033 101.84Z" fill="#074793"/>
<path d="M429.146 89.9914C429.471 89.8733 429.707 89.8859 429.855 90.0252C430.007 90.1665 430.087 90.3711 430.1 90.6411C430.11 90.9111 430.06 91.236 429.948 91.6115C429.84 91.9828 429.691 92.3456 429.501 92.7C429.309 93.0544 429.087 93.3645 428.834 93.6281C428.581 93.8876 428.313 94.0564 428.032 94.1344C427.868 94.1745 427.585 94.2167 427.18 94.261C426.779 94.3011 426.296 94.3454 425.729 94.396C425.166 94.4424 424.535 94.4867 423.839 94.531C423.147 94.5711 422.426 94.6217 421.679 94.6829C421.092 95.6279 420.472 96.6299 419.814 97.6868C419.16 98.7457 418.531 99.8005 417.924 100.851C417.321 101.897 416.772 102.906 416.279 103.872C415.789 104.84 415.405 105.703 415.131 106.462C414.861 107.217 414.726 107.829 414.726 108.302C414.726 108.774 414.916 109.053 415.3 109.137C415.743 109.217 416.186 109.084 416.624 108.74C417.067 108.399 417.477 107.96 417.848 107.424C418.223 106.89 418.567 106.323 418.877 105.72C419.192 105.112 419.438 104.587 419.62 104.142C419.822 103.699 420.059 103.397 420.329 103.239C420.603 103.076 420.852 103.036 421.071 103.121C421.295 103.201 421.447 103.391 421.527 103.695C421.611 103.994 421.552 104.395 421.35 104.901C421.164 105.407 420.873 106.036 420.481 106.783C420.092 107.525 419.614 108.24 419.046 108.926C418.483 109.607 417.848 110.181 417.139 110.647C416.435 111.109 415.663 111.31 414.819 111.255C413.969 111.194 413.329 110.922 412.903 110.436C412.481 109.953 412.224 109.314 412.127 108.521C412.026 107.724 412.057 106.806 412.22 105.77C412.378 104.73 412.629 103.625 412.979 102.454C413.334 101.286 413.751 100.081 414.237 98.8428C414.72 97.6003 415.226 96.3831 415.755 95.1892C415.148 95.2524 414.576 95.3199 414.042 95.3917C413.507 95.4592 413.03 95.5436 412.608 95.6448C412.203 95.7292 411.887 95.7355 411.655 95.6617C411.425 95.59 411.29 95.4803 411.25 95.3326C411.205 95.1807 411.258 95.0035 411.41 94.801C411.562 94.5985 411.821 94.4171 412.186 94.2526C412.929 93.8939 413.682 93.5986 414.447 93.3666C415.217 93.1303 416.017 92.9341 416.844 92.7759C417.243 91.9279 417.633 91.1263 418.017 90.3711C418.405 89.6117 418.753 88.9325 419.063 88.3292C419.377 87.7216 419.645 87.2132 419.865 86.8019C420.088 86.3863 420.249 86.0994 420.346 85.9412C420.531 85.5995 420.772 85.397 421.071 85.3337C421.375 85.2725 421.698 85.3232 422.042 85.4856C422.383 85.6501 422.727 85.8885 423.071 86.2028C423.413 86.5129 423.712 86.8588 423.965 87.2407C424.219 87.6246 424.404 88.0296 424.522 88.4557C424.645 88.8776 424.657 89.27 424.556 89.6286C424.51 89.7931 424.398 90.0399 424.219 90.3711C424.037 90.7044 423.816 91.101 423.552 91.5609C424.44 91.3816 425.343 91.1706 426.261 90.928C427.176 90.6875 428.138 90.3753 429.146 89.9914Z" fill="#074793"/>
<path d="M68.4471 74.578C68.4457 74.5289 68.4527 74.4713 68.4457 74.418V74.4334C68.4457 74.4811 68.4443 74.5303 68.4471 74.578Z" fill="#FF0000"/>
<path fill-rule="evenodd" clip-rule="evenodd" d="M89.8769 65.6201C89.8769 65.6201 92.1862 60.9807 92.3505 58.0447C92.5023 55.1115 85.5871 63.1799 85.5871 63.1799C85.5871 63.1799 87.3393 57.716 86.9646 56.9569C86.5941 56.1965 79.2764 61.4348 75.8126 65.8778C74.112 68.0394 71.2414 73.1843 68.4141 78.1802C70.8737 83.9896 75.0131 88.1888 82.1386 90.6917C83.5077 91.1736 84.952 91.5886 86.4089 91.9647C86.5384 87.0272 90.4173 83.1302 91.6848 82.6093C93.0469 82.0438 95.8757 82.9422 97.7476 80.8405C99.6181 78.736 99.632 77.5688 99.4718 77.3808C99.3158 77.2025 95.9035 74.3752 95.4035 72.1133C94.9146 69.8514 94.4481 67.4405 89.8769 65.6201Z" fill="#FF0000"/>
<path fill-rule="evenodd" clip-rule="evenodd" d="M49.846 62.4013C49.8362 62.4111 47.7442 66.3945 51.6092 72.0464C53.1789 74.3501 54.58 75.7902 55.7514 76.6816C57.4116 77.9323 58.5578 78.0424 59.0592 77.8766C61.895 76.9393 60.9562 67.9251 60.3225 65.6911C62.3866 67.6619 63.1053 79.1023 59.7027 80.2388C59.0175 80.4672 57.5718 80.3739 55.6483 78.9254C54.4018 77.9839 52.9421 76.4741 51.3154 74.0924C50.0256 72.2066 47.0465 66.0184 49.846 62.4013ZM23.1295 72.8765C22.8147 72.4225 19.3648 67.095 19.5083 64.5184C19.6684 61.9362 23.454 59.6241 26.5627 60.0225C29.67 60.4083 32.8414 61.3164 36.1131 58.6297C39.3917 55.9402 45.9949 53.1727 53.4477 56.8386C60.8963 60.5085 62.395 61.4849 64.019 70.5032C65.6485 79.5368 69.3102 88.4688 81.426 92.7265C85.1852 94.0538 98.386 96.5344 105.624 97.9077C103.435 99.8144 101.269 102.383 99.8136 104.019C98.1283 105.919 96.2899 108.051 94.3511 109.685C93.1282 110.712 91.3845 111.295 89.9053 111.76C87.539 112.503 85.2311 113.121 82.9456 114.089C76.8382 116.67 71.9314 119.88 68.4453 123.715C64.9521 119.88 60.0467 116.67 53.9408 114.089C52.1914 113.351 50.4365 112.817 48.6607 112.27C46.7665 100.951 48.6119 88.0899 45.1314 83.8753C39.9892 77.6412 26.1881 81.9839 23.1295 72.8765Z" fill="#FF0000"/>
<path fill-rule="evenodd" clip-rule="evenodd" d="M68.4546 153.388C59.375 134.713 67.878 123.098 83.8992 116.334C88.696 114.316 93.0498 113.958 95.9176 111.549C100.439 107.756 106.276 99.2976 109.93 97.9229C115.185 95.9452 113.671 100.651 113.671 100.651C113.671 100.651 107.717 111.315 106.893 112.418C106.054 113.524 102.223 117.288 101.029 117.695C102.274 117.687 105.213 115.394 107.781 112.806C108.56 112.024 109.089 110.792 109.769 109.592C112.715 104.423 115.3 101.523 115.411 98.9188C115.514 96.3212 112.887 96.3797 112.887 96.3797C112.887 96.3797 114.362 91.8671 113.632 83.6928C113.17 78.5381 116.394 76.1871 117.995 76.9782C118.717 77.3292 118.731 81.1956 118.851 82.5354C119.399 88.3447 121.287 97.9229 120.02 101.975C118.408 107.122 115.185 119.386 109.13 124.978C92.327 140.482 78.2487 131.321 68.4546 153.388Z" fill="#FF0000"/>
<path fill-rule="evenodd" clip-rule="evenodd" d="M68.4487 153.388C77.5255 134.713 69.0155 123.098 52.9915 116.334C48.1976 114.316 43.8507 113.958 40.9787 111.549C36.4591 107.756 30.6206 99.2976 26.9784 97.9229C21.7221 95.9452 23.229 100.651 23.229 100.651C23.229 100.651 29.179 111.315 30.0189 112.418C30.856 113.524 34.6778 117.288 35.87 117.695C34.6248 117.687 31.6874 115.394 29.1108 112.806C28.3462 112.024 27.8071 110.792 27.1316 109.592C24.1998 104.423 21.5953 101.523 21.4853 98.9188C21.3864 96.3212 24.0132 96.3797 24.0132 96.3797C24.0132 96.3797 22.541 91.8671 23.2708 83.6928C23.7221 78.5381 20.5075 76.1871 18.9003 76.9782C18.1886 77.3292 18.1718 81.1956 18.0409 82.5354C17.4963 88.3447 15.6147 97.9229 16.8765 101.975C18.488 107.122 21.7221 119.386 27.7779 124.978C44.5819 140.482 58.6588 131.321 68.4487 153.388Z" fill="#FF0000"/>
<mask id="mask0_1162_230" style="mask-type:luminance" maskUnits="userSpaceOnUse" x="0" y="16" width="137" height="108">
<path d="M0.300781 16.1172H136.861V123.44H0.300781V16.1172Z" fill="white"/>
</mask>
<g mask="url(#mask0_1162_230)">
<mask id="mask1_1162_230" style="mask-type:luminance" maskUnits="userSpaceOnUse" x="0" y="16" width="137" height="108">
<path d="M92.9035 28.0087C116.014 37.6106 132.283 60.4258 132.283 87.0545C132.283 100.506 128.138 112.976 121.042 123.27C130.75 111.485 136.58 96.3834 136.58 79.9123C136.58 50.8629 118.446 26.049 92.9035 16.2188V28.0087ZM0.375 79.9123C0.375 96.3834 6.208 111.485 15.9115 123.27C8.82922 112.976 4.67871 100.506 4.67871 87.0545C4.67871 60.4258 20.9465 37.6106 44.0584 28.0087V16.2188C18.5091 26.049 0.375 50.8629 0.375 79.9123Z" fill="white"/>
</mask>
<g mask="url(#mask1_1162_230)">
<path d="M136.58 16.2188H0.375V123.27H136.58V16.2188Z" fill="url(#paint0_linear_1162_230)"/>
</g>
</g>
<path fill-rule="evenodd" clip-rule="evenodd" d="M89.4554 14.3268V27.873C89.4554 29.4344 88.1713 30.7115 86.61 30.7115H50.2888C48.7303 30.7115 47.4531 29.4344 47.4531 27.873V14.3268C47.4531 12.7655 48.7303 11.4883 50.2888 11.4883H86.61C88.1713 11.4883 89.4554 12.7655 89.4554 14.3268Z" fill="#FF0000"/>
<path fill-rule="evenodd" clip-rule="evenodd" d="M61.6995 0.0703125H75.2263C76.7779 0.0703125 78.0537 1.34611 78.0537 2.91578V39.301C78.0537 40.8609 76.7779 42.1339 75.2263 42.1339H61.6995C60.1396 42.1339 58.8555 40.8609 58.8555 39.301V2.91578C58.8555 1.34611 60.1396 0.0703125 61.6995 0.0703125Z" fill="#FF0000"/>
<path d="M74.1964 52.6372C74.2674 52.8475 74.3301 53.0564 74.3872 53.2681C74.4847 53.6386 74.5585 54.0105 74.6115 54.3838C75.0418 57.4019 74.0307 60.4507 71.8245 62.4731C71.7145 62.5733 71.6002 62.6736 71.4846 62.7683C71.5835 62.6374 71.6755 62.5037 71.7646 62.37C72.8022 60.7906 73.3217 58.8922 73.2563 56.9576C73.2841 56.5941 73.2897 56.225 73.273 55.8573C73.2479 55.3406 73.1797 54.8197 73.0641 54.3044C72.9276 53.6971 72.7298 53.0954 72.461 52.5091C72.3315 52.2208 72.1852 51.9366 72.0223 51.6567C71.6546 51.0271 71.2256 50.4561 70.7465 49.9505C70.4986 49.6859 70.2353 49.4407 69.9609 49.2109C70.2284 49.314 70.4902 49.431 70.7451 49.5619C71.3858 49.885 71.993 50.2917 72.5501 50.7723C73.1671 51.3029 73.7229 51.9269 74.1964 52.6372Z" fill="#FF0000"/>
<path d="M70.3669 46.8543C70.4491 46.9183 70.4073 47.0465 70.314 47.02C69.8934 46.9016 69.4602 46.8362 69.0257 46.825C68.3195 46.8055 67.6092 46.9323 66.9379 47.2164C66.7861 47.2805 66.6371 47.3529 66.4894 47.4323C66.4449 47.4574 66.4003 47.4824 66.3571 47.5075C66.3209 47.5284 66.2847 47.5493 66.2499 47.5716C66.1482 47.6356 66.0493 47.6997 65.9546 47.7707C65.9253 47.7902 65.8947 47.8125 65.8668 47.8348C65.676 47.9769 65.4978 48.1342 65.3334 48.3C65.2415 48.3905 65.1551 48.4852 65.0716 48.5827C65.0479 48.6106 65.0242 48.6398 65.0005 48.6677C64.942 48.7387 64.8877 48.8111 64.8334 48.885C64.7763 48.9644 64.7206 49.0465 64.6677 49.1287C64.6649 49.1315 64.6635 49.1357 64.6607 49.1384C64.5214 49.2917 64.4183 49.4727 64.3529 49.6691C64.3459 49.6914 64.339 49.7137 64.3334 49.736C64.2805 49.9226 64.2624 50.1204 64.2819 50.3195C64.3014 50.5257 64.3612 50.7332 64.4657 50.9282C64.4768 50.9505 64.488 50.9714 64.5005 50.9909C64.598 51.1594 64.7206 51.3042 64.8585 51.4212C64.871 51.4324 64.8849 51.4393 64.9002 51.4421C64.9434 51.4533 64.9852 51.4644 65.0284 51.4769C65.1315 51.5048 65.2317 51.5354 65.3334 51.5689C65.3877 51.587 65.4393 51.6065 65.4936 51.626L65.5521 51.6483C65.6719 51.6942 65.7888 51.743 65.9058 51.7973C66.0312 51.8544 66.1552 51.9171 66.2763 51.9839V51.9853C66.488 52.0995 66.6914 52.2277 66.8892 52.3697C67.4059 52.7402 67.8725 53.2026 68.2652 53.7472C68.3446 53.8558 68.4198 53.9659 68.4909 54.0815C68.5271 54.1386 68.5619 54.1957 68.5967 54.2556C68.6009 54.2639 68.6051 54.2709 68.6092 54.2778C68.6148 54.2876 68.6176 54.2973 68.6204 54.3085C68.7694 55.0063 68.8404 55.7096 68.8349 56.406C68.8335 56.6985 68.8182 56.9896 68.7889 57.2793C68.7764 57.413 68.7597 57.5467 68.7402 57.679C68.5131 59.2738 67.885 60.7822 66.8947 62.0385C66.7206 62.2585 66.5368 62.4702 66.3432 62.6722C66.0214 63.0078 65.6691 63.3198 65.2888 63.6039C65.2317 63.6457 65.1468 63.5886 65.1454 63.5106L65.1384 62.7488L65.0716 55.9854L65.0688 55.5815L65.0521 53.9087L65.0451 53.2555L65.034 52.1232C65.034 52.048 64.956 51.9923 64.8975 52.0243L63.8584 52.6246L62.545 53.3823C62.467 53.4268 62.3723 53.314 62.4211 53.236L62.4531 53.1859L63.3055 51.8516C63.3348 51.8042 63.3125 51.7332 63.2582 51.7054C63.0743 51.6079 62.9016 51.4825 62.747 51.3293C62.7386 51.3223 62.7317 51.314 62.7233 51.3056C62.6008 51.1803 62.4935 51.0382 62.4002 50.8808C62.2651 50.6482 62.1773 50.4017 62.1356 50.1538C62.1258 50.1037 62.1189 50.0535 62.1147 50.0034C62.1147 50.002 62.1147 50.002 62.1133 50.0006L62.1175 49.6385C62.1175 49.6315 62.1189 49.6245 62.1202 49.6176C62.1996 49.2791 62.3138 48.9504 62.4573 48.637C62.6342 48.2526 62.8556 47.8905 63.1217 47.5576C63.137 47.5381 63.1551 47.5172 63.1718 47.4977C63.1899 47.4755 63.208 47.4532 63.2261 47.4323C63.2902 47.3585 63.3556 47.2874 63.4225 47.2178C63.7345 46.8947 64.0924 46.6091 64.4977 46.3724C64.6537 46.2818 64.8139 46.1997 64.9755 46.1258C65.1078 46.066 65.2415 46.0144 65.3766 45.9671C65.3849 45.9643 65.3933 45.9601 65.4017 45.9587C65.676 45.864 65.956 45.7944 66.2387 45.7512C66.5688 45.6969 66.9031 45.6788 67.2346 45.6913C67.8349 45.715 68.4296 45.8417 68.995 46.066H68.9964C69.4825 46.2596 69.9449 46.5228 70.3669 46.8543ZM70.7959 64.0037L70.8015 65.455L70.8071 66.689C70.6413 66.7656 70.477 66.8519 70.3154 66.9452C70.1511 67.0413 69.9937 67.1444 69.8419 67.253C69.8405 67.2544 69.8391 67.2544 69.8391 67.2544C68.5981 68.1458 67.7903 69.4481 67.495 70.8562C67.1677 69.5888 67.2833 68.2614 67.7861 67.0831C67.9351 66.7321 68.119 66.3951 68.3349 66.0775L68.3363 66.0761C68.8196 65.3644 69.4644 64.7474 70.2569 64.2836C70.4338 64.1806 70.6135 64.0858 70.7959 64.0037ZM71.3113 57.0216C71.3377 57.108 71.3586 57.1943 71.3781 57.2835C71.6413 58.4618 71.4798 59.7473 70.9561 60.9939C70.9018 61.1234 70.8447 61.2515 70.7848 61.3783L70.7834 61.3797C70.4477 62.0761 70.0006 62.7571 69.4519 63.395H69.4505C69.1636 63.7307 68.8474 64.0524 68.5048 64.3602H68.5034C67.9491 64.8588 67.3265 65.3157 66.6426 65.7154C66.5465 65.7711 66.4518 65.8254 66.3557 65.877L66.3487 64.7293L66.3474 64.5496L66.3404 63.395V63.3936C66.7554 63.2376 67.1649 63.044 67.5633 62.8114C68.7847 62.0969 69.7416 61.115 70.3837 60.0133C70.5313 59.7612 70.6622 59.5036 70.775 59.2389C71.0438 58.6192 71.2165 57.9715 71.2862 57.3211C71.2987 57.2208 71.3071 57.1205 71.3113 57.0216Z" fill="#FF0000"/>
<path d="M66.0558 49.4753C66.2411 49.7929 66.1464 50.1926 65.8455 50.3681C65.5447 50.545 65.1505 50.4294 64.9653 50.1132C64.7814 49.7956 64.8747 49.3959 65.1756 49.219C65.4778 49.0435 65.8706 49.1577 66.0558 49.4753Z" fill="#FF0000"/>
<path d="M66.6744 17.1446C68.0129 16.4413 68.453 14.6418 67.6577 13.1264C66.8638 11.6111 65.134 10.9537 63.7969 11.657C62.4598 12.3618 62.0197 14.1613 62.8136 15.6752C63.6089 17.1906 65.3373 17.848 66.6744 17.1446ZM62.9125 17.0262C62.2328 15.7323 60.7579 15.171 59.6158 15.7713C58.4737 16.373 58.0976 17.9079 58.7759 19.2018C59.4542 20.4957 60.9306 21.057 62.0726 20.4567C63.2147 19.855 63.5908 18.3201 62.9125 17.0262ZM70.2274 17.1446C71.5645 17.848 73.2929 17.1906 74.0882 15.6752C74.8835 14.1613 74.4434 12.3618 73.1049 11.657C71.7678 10.9537 70.0394 11.6111 69.2441 13.1264C68.4488 14.6418 68.8903 16.4413 70.2274 17.1446ZM68.4516 18.3758C65.6646 18.38 61.6102 21.2408 61.6102 26.3356C61.6102 30.7591 66.6173 30.7758 68.4516 30.8204C70.2845 30.7758 75.2916 30.7591 75.2916 26.3356C75.2916 21.2408 71.2372 18.38 68.4516 18.3758ZM73.9907 17.0262C73.3111 18.3201 73.6871 19.855 74.8292 20.4567C75.9713 21.057 77.4476 20.4957 78.1259 19.2018C78.8042 17.9079 78.4295 16.373 77.2875 15.7713C76.1454 15.171 74.669 15.7323 73.9907 17.0262ZM92.3463 69.7377C92.3463 70.4229 91.7919 70.9773 91.1081 70.9773C90.4242 70.9773 89.8713 70.4229 89.8713 69.7377C89.8713 69.0538 90.4242 68.4981 91.1081 68.4981C91.7919 68.4981 92.3463 69.0538 92.3463 69.7377ZM43.692 59.9561C43.692 60.7389 43.0583 61.374 42.277 61.374C41.4956 61.374 40.8633 60.7389 40.8633 59.9561C40.8633 59.1748 41.4956 58.5397 42.277 58.5397C43.0583 58.5397 43.692 59.1748 43.692 59.9561Z" fill="white"/>
<defs>
<linearGradient id="paint0_linear_1162_230" x1="68.4776" y1="16.2184" x2="68.4776" y2="123.27" gradientUnits="userSpaceOnUse">
<stop stop-color="#2F66BE"/>
<stop offset="0.00390625" stop-color="#2F67BE"/>
<stop offset="0.0078125" stop-color="#3068BF"/>
<stop offset="0.0117188" stop-color="#3168C0"/>
<stop offset="0.015625" stop-color="#3169C0"/>
<stop offset="0.0195312" stop-color="#326AC1"/>
<stop offset="0.0234375" stop-color="#336BC1"/>
<stop offset="0.0273438" stop-color="#336BC2"/>
<stop offset="0.03125" stop-color="#346CC2"/>
<stop offset="0.0351563" stop-color="#346DC3"/>
<stop offset="0.0390625" stop-color="#356DC3"/>
<stop offset="0.0429687" stop-color="#366EC4"/>
<stop offset="0.046875" stop-color="#366FC5"/>
<stop offset="0.0507812" stop-color="#3770C5"/>
<stop offset="0.0546875" stop-color="#3870C6"/>
<stop offset="0.0585938" stop-color="#3871C6"/>
<stop offset="0.0625" stop-color="#3972C7"/>
<stop offset="0.0664062" stop-color="#3972C7"/>
<stop offset="0.0703125" stop-color="#3A73C8"/>
<stop offset="0.0742187" stop-color="#3A74C8"/>
<stop offset="0.078125" stop-color="#3B74C9"/>
<stop offset="0.0820313" stop-color="#3C75C9"/>
<stop offset="0.0859375" stop-color="#3C76CA"/>
<stop offset="0.0898437" stop-color="#3D76CA"/>
<stop offset="0.09375" stop-color="#3D77CB"/>
<stop offset="0.0976562" stop-color="#3E78CB"/>
<stop offset="0.101562" stop-color="#3E78CC"/>
<stop offset="0.105469" stop-color="#3F79CC"/>
<stop offset="0.109375" stop-color="#407ACD"/>
<stop offset="0.113281" stop-color="#407ACD"/>
<stop offset="0.117187" stop-color="#417BCE"/>
<stop offset="0.121094" stop-color="#417CCE"/>
<stop offset="0.125" stop-color="#427CCF"/>
<stop offset="0.128906" stop-color="#427DCF"/>
<stop offset="0.132812" stop-color="#437ED0"/>
<stop offset="0.136719" stop-color="#437ED0"/>
<stop offset="0.140625" stop-color="#447FD1"/>
<stop offset="0.144531" stop-color="#447FD1"/>
<stop offset="0.148437" stop-color="#4580D2"/>
<stop offset="0.152344" stop-color="#4681D2"/>
<stop offset="0.15625" stop-color="#4681D3"/>
<stop offset="0.160156" stop-color="#4782D3"/>
<stop offset="0.164063" stop-color="#4783D3"/>
<stop offset="0.167969" stop-color="#4883D4"/>
<stop offset="0.171875" stop-color="#4884D4"/>
<stop offset="0.175781" stop-color="#4984D5"/>
<stop offset="0.179687" stop-color="#4985D5"/>
<stop offset="0.183594" stop-color="#4A86D6"/>
<stop offset="0.1875" stop-color="#4A86D6"/>
<stop offset="0.191406" stop-color="#4B87D7"/>
<stop offset="0.195312" stop-color="#4B87D7"/>
<stop offset="0.199219" stop-color="#4C88D7"/>
<stop offset="0.203125" stop-color="#4C88D8"/>
<stop offset="0.207031" stop-color="#4D89D8"/>
<stop offset="0.210938" stop-color="#4D8AD9"/>
<stop offset="0.214844" stop-color="#4D8AD9"/>
<stop offset="0.21875" stop-color="#4E8BDA"/>
<stop offset="0.222656" stop-color="#4E8BDA"/>
<stop offset="0.226562" stop-color="#4F8CDA"/>
<stop offset="0.230469" stop-color="#4F8CDB"/>
<stop offset="0.234375" stop-color="#508DDB"/>
<stop offset="0.238281" stop-color="#508DDC"/>
<stop offset="0.242187" stop-color="#518EDC"/>
<stop offset="0.246094" stop-color="#518EDC"/>
<stop offset="0.25" stop-color="#528FDD"/>
<stop offset="0.253906" stop-color="#528FDD"/>
<stop offset="0.257812" stop-color="#5290DE"/>
<stop offset="0.261719" stop-color="#5390DE"/>
<stop offset="0.265625" stop-color="#5391DE"/>
<stop offset="0.269531" stop-color="#5491DF"/>
<stop offset="0.273438" stop-color="#5492DF"/>
<stop offset="0.277344" stop-color="#5592E0"/>
<stop offset="0.28125" stop-color="#5593E0"/>
<stop offset="0.289062" stop-color="#5693E0"/>
<stop offset="0.296875" stop-color="#5694E1"/>
<stop offset="0.304687" stop-color="#5795E2"/>
<stop offset="0.3125" stop-color="#5896E2"/>
<stop offset="0.320312" stop-color="#5997E3"/>
<stop offset="0.328125" stop-color="#5A98E4"/>
<stop offset="0.335937" stop-color="#5A99E5"/>
<stop offset="0.34375" stop-color="#5B9AE5"/>
<stop offset="0.351562" stop-color="#5C9BE6"/>
<stop offset="0.359375" stop-color="#5D9CE7"/>
<stop offset="0.367188" stop-color="#5D9DE7"/>
<stop offset="0.375" stop-color="#5E9EE8"/>
<stop offset="0.382812" stop-color="#5F9EE9"/>
<stop offset="0.390625" stop-color="#5F9FE9"/>
<stop offset="0.398437" stop-color="#60A0EA"/>
<stop offset="0.40625" stop-color="#61A1EA"/>
<stop offset="0.414062" stop-color="#61A2EB"/>
<stop offset="0.421875" stop-color="#62A2EC"/>
<stop offset="0.429687" stop-color="#63A3EC"/>
<stop offset="0.4375" stop-color="#63A4ED"/>
<stop offset="0.445312" stop-color="#64A5ED"/>
<stop offset="0.453125" stop-color="#65A5EE"/>
<stop offset="0.460937" stop-color="#65A6EE"/>
<stop offset="0.46875" stop-color="#66A7EF"/>
<stop offset="0.476562" stop-color="#66A7EF"/>
<stop offset="0.484375" stop-color="#67A8F0"/>
<stop offset="0.492187" stop-color="#68A9F0"/>
<stop offset="0.5" stop-color="#68A9F1"/>
<stop offset="0.507812" stop-color="#69AAF1"/>
<stop offset="0.515625" stop-color="#69ABF2"/>
<stop offset="0.523438" stop-color="#6AABF2"/>
<stop offset="0.53125" stop-color="#6AACF3"/>
<stop offset="0.539062" stop-color="#6BACF3"/>
<stop offset="0.546875" stop-color="#6BADF4"/>
<stop offset="0.554687" stop-color="#6CADF4"/>
<stop offset="0.5625" stop-color="#6CAEF4"/>
<stop offset="0.570312" stop-color="#6DAFF5"/>
<stop offset="0.578125" stop-color="#6DAFF5"/>
<stop offset="0.59375" stop-color="#6EB0F6"/>
<stop offset="0.609375" stop-color="#6EB1F6"/>
<stop offset="0.625" stop-color="#6FB2F7"/>
<stop offset="0.640625" stop-color="#70B3F8"/>
<stop offset="0.65625" stop-color="#71B3F8"/>
<stop offset="0.671875" stop-color="#71B4F9"/>
<stop offset="0.6875" stop-color="#72B5FA"/>
<stop offset="0.703125" stop-color="#73B6FA"/>
<stop offset="0.71875" stop-color="#73B6FB"/>
<stop offset="0.734375" stop-color="#74B7FB"/>
<stop offset="0.75" stop-color="#74B8FC"/>
<stop offset="0.765625" stop-color="#75B8FC"/>
<stop offset="0.78125" stop-color="#75B9FC"/>
<stop offset="0.8125" stop-color="#76B9FD"/>
<stop offset="0.84375" stop-color="#76BAFD"/>
<stop offset="0.875" stop-color="#77BBFE"/>
<stop offset="0.9375" stop-color="#77BBFE"/>
<stop offset="1" stop-color="#78BCFF"/>
</linearGradient>
</defs>
</svg>
