<svg width="18" height="19" viewBox="0 0 18 19" fill="none" xmlns="http://www.w3.org/2000/svg">
<path d="M9 11C9.14834 11 9.29334 10.956 9.41668 10.8736C9.54002 10.7912 9.63614 10.6741 9.69291 10.537C9.74968 10.4 9.76453 10.2492 9.73559 10.1037C9.70665 9.9582 9.63522 9.82456 9.53033 9.71967C9.42544 9.61478 9.2918 9.54335 9.14632 9.51441C9.00083 9.48547 8.85003 9.50032 8.71299 9.55709C8.57594 9.61386 8.45881 9.70999 8.3764 9.83332C8.29399 9.95666 8.25 10.1017 8.25 10.25C8.25 10.4489 8.32902 10.6397 8.46967 10.7803C8.61032 10.921 8.80109 11 9 11ZM12.75 11C12.8983 11 13.0433 10.956 13.1667 10.8736C13.29 10.7912 13.3861 10.6741 13.4429 10.537C13.4997 10.4 13.5145 10.2492 13.4856 10.1037C13.4566 9.9582 13.3852 9.82456 13.2803 9.71967C13.1754 9.61478 13.0418 9.54335 12.8963 9.51441C12.7508 9.48547 12.6 9.50032 12.463 9.55709C12.3259 9.61386 12.2088 9.70999 12.1264 9.83332C12.044 9.95666 12 10.1017 12 10.25C12 10.4489 12.079 10.6397 12.2197 10.7803C12.3603 10.921 12.5511 11 12.75 11ZM9 14C9.14834 14 9.29334 13.956 9.41668 13.8736C9.54002 13.7912 9.63614 13.6741 9.69291 13.537C9.74968 13.4 9.76453 13.2492 9.73559 13.1037C9.70665 12.9582 9.63522 12.8246 9.53033 12.7197C9.42544 12.6148 9.2918 12.5434 9.14632 12.5144C9.00083 12.4855 8.85003 12.5003 8.71299 12.5571C8.57594 12.6139 8.45881 12.71 8.3764 12.8333C8.29399 12.9567 8.25 13.1017 8.25 13.25C8.25 13.4489 8.32902 13.6397 8.46967 13.7803C8.61032 13.921 8.80109 14 9 14ZM12.75 14C12.8983 14 13.0433 13.956 13.1667 13.8736C13.29 13.7912 13.3861 13.6741 13.4429 13.537C13.4997 13.4 13.5145 13.2492 13.4856 13.1037C13.4566 12.9582 13.3852 12.8246 13.2803 12.7197C13.1754 12.6148 13.0418 12.5434 12.8963 12.5144C12.7508 12.4855 12.6 12.5003 12.463 12.5571C12.3259 12.6139 12.2088 12.71 12.1264 12.8333C12.044 12.9567 12 13.1017 12 13.25C12 13.4489 12.079 13.6397 12.2197 13.7803C12.3603 13.921 12.5511 14 12.75 14ZM5.25 11C5.39834 11 5.54334 10.956 5.66668 10.8736C5.79001 10.7912 5.88614 10.6741 5.94291 10.537C5.99968 10.4 6.01453 10.2492 5.98559 10.1037C5.95665 9.9582 5.88522 9.82456 5.78033 9.71967C5.67544 9.61478 5.5418 9.54335 5.39632 9.51441C5.25083 9.48547 5.10003 9.50032 4.96299 9.55709C4.82594 9.61386 4.70881 9.70999 4.6264 9.83332C4.54399 9.95666 4.5 10.1017 4.5 10.25C4.5 10.4489 4.57902 10.6397 4.71967 10.7803C4.86032 10.921 5.05109 11 5.25 11ZM14.25 3.5H13.5V2.75C13.5 2.55109 13.421 2.36032 13.2803 2.21967C13.1397 2.07902 12.9489 2 12.75 2C12.5511 2 12.3603 2.07902 12.2197 2.21967C12.079 2.36032 12 2.55109 12 2.75V3.5H6V2.75C6 2.55109 5.92098 2.36032 5.78033 2.21967C5.63968 2.07902 5.44891 2 5.25 2C5.05109 2 4.86032 2.07902 4.71967 2.21967C4.57902 2.36032 4.5 2.55109 4.5 2.75V3.5H3.75C3.15326 3.5 2.58097 3.73705 2.15901 4.15901C1.73705 4.58097 1.5 5.15326 1.5 5.75V14.75C1.5 15.3467 1.73705 15.919 2.15901 16.341C2.58097 16.7629 3.15326 17 3.75 17H14.25C14.8467 17 15.419 16.7629 15.841 16.341C16.2629 15.919 16.5 15.3467 16.5 14.75V5.75C16.5 5.15326 16.2629 4.58097 15.841 4.15901C15.419 3.73705 14.8467 3.5 14.25 3.5ZM15 14.75C15 14.9489 14.921 15.1397 14.7803 15.2803C14.6397 15.421 14.4489 15.5 14.25 15.5H3.75C3.55109 15.5 3.36032 15.421 3.21967 15.2803C3.07902 15.1397 3 14.9489 3 14.75V8H15V14.75ZM15 6.5H3V5.75C3 5.55109 3.07902 5.36032 3.21967 5.21967C3.36032 5.07902 3.55109 5 3.75 5H14.25C14.4489 5 14.6397 5.07902 14.7803 5.21967C14.921 5.36032 15 5.55109 15 5.75V6.5ZM5.25 14C5.39834 14 5.54334 13.956 5.66668 13.8736C5.79001 13.7912 5.88614 13.6741 5.94291 13.537C5.99968 13.4 6.01453 13.2492 5.98559 13.1037C5.95665 12.9582 5.88522 12.8246 5.78033 12.7197C5.67544 12.6148 5.5418 12.5434 5.39632 12.5144C5.25083 12.4855 5.10003 12.5003 4.96299 12.5571C4.82594 12.6139 4.70881 12.71 4.6264 12.8333C4.54399 12.9567 4.5 13.1017 4.5 13.25C4.5 13.4489 4.57902 13.6397 4.71967 13.7803C4.86032 13.921 5.05109 14 5.25 14Z" fill="white"/>
</svg>
