<svg width="37" height="37" viewBox="0 0 37 37" fill="none" xmlns="http://www.w3.org/2000/svg">
<path d="M6.18659 31.2402C4.46741 29.5797 3.09613 27.5935 2.15277 25.3974C1.20941 23.2014 0.712855 20.8394 0.692086 18.4494C0.671317 16.0593 1.12675 13.6891 2.0318 11.477C2.93686 9.26485 4.27342 7.25512 5.96348 5.56505C7.65355 3.87498 9.66329 2.53842 11.8754 1.63337C14.0876 0.72831 16.4578 0.27288 18.8478 0.293648C21.2378 0.314417 23.5998 0.810969 25.7959 1.75433C27.9919 2.69769 29.9782 4.06897 31.6386 5.78816C34.9174 9.183 36.7317 13.7298 36.6907 18.4494C36.6497 23.1689 34.7567 27.6835 31.4193 31.0209C28.082 34.3582 23.5674 36.2513 18.8478 36.2923C14.1283 36.3333 9.58143 34.519 6.18659 31.2402ZM29.1006 28.7022C31.8026 26.0001 33.3206 22.3354 33.3206 18.5142C33.3206 14.6929 31.8026 11.0282 29.1006 8.32616C26.3986 5.62413 22.7338 4.10615 18.9126 4.10615C15.0914 4.10615 11.4266 5.62413 8.72459 8.32616C6.02257 11.0282 4.50459 14.6929 4.50459 18.5142C4.50459 22.3354 6.02257 26.0001 8.72459 28.7022C11.4266 31.4042 15.0914 32.9222 18.9126 32.9222C22.7338 32.9222 26.3986 31.4042 29.1006 28.7022ZM13.5126 11.3142H17.1126V25.7142H13.5126V11.3142ZM20.7126 11.3142H24.3126V25.7142H20.7126V11.3142Z" fill="white"/>
</svg>
