<svg width="37" height="37" viewBox="0 0 37 37" fill="none" xmlns="http://www.w3.org/2000/svg">
<path d="M6.27644 31.7265C4.55725 30.066 3.18597 28.0798 2.24261 25.8838C1.29925 23.6877 0.802698 21.3257 0.78193 18.9357C0.761161 16.5457 1.21659 14.1754 2.12165 11.9633C3.0267 9.75118 4.36326 7.74144 6.05333 6.05137C7.7434 4.36131 9.75313 3.02475 11.9653 2.11969C14.1774 1.21464 16.5476 0.759208 18.9377 0.779976C21.3277 0.800745 23.6896 1.2973 25.8857 2.24066C28.0818 3.18402 30.068 4.5553 31.7284 6.27448C35.0073 9.66932 36.8216 14.2162 36.7806 18.9357C36.7396 23.6552 34.8465 28.1699 31.5092 31.5072C28.1718 34.8446 23.6572 36.7376 18.9377 36.7786C14.2181 36.8196 9.67128 35.0053 6.27644 31.7265ZM29.1904 29.1885C31.8925 26.4865 33.4104 22.8217 33.4104 19.0005C33.4104 15.1792 31.8925 11.5145 29.1904 8.81248C26.4884 6.11046 22.8237 4.59248 19.0024 4.59248C15.1812 4.59248 11.5165 6.11046 8.81444 8.81248C6.11241 11.5145 4.59443 15.1792 4.59443 19.0005C4.59443 22.8217 6.11241 26.4865 8.81444 29.1885C11.5165 31.8905 15.1812 33.4085 19.0024 33.4085C22.8237 33.4085 26.4884 31.8905 29.1904 29.1885Z" fill="white"/>
<path d="M14.8516 11.8906V26.3965L26.249 19.1436L14.8516 11.8906Z" fill="white"/>
</svg>
